<svg xmlns="http://www.w3.org/2000/svg" viewBox="0 0 25.23 20.88"><path d="M170.82,33.25V37h-3.76V33.25h3.76m.32-1.12h-4.4a.8.8,0,0,0-.8.81v4.39a.8.8,0,0,0,.8.8h4.4a.8.8,0,0,0,.8-.8V32.94a.8.8,0,0,0-.8-.81Z" transform="translate(-165.94 -32.13)"/><path d="M170.82,48.14V51.9h-3.76V48.14h3.76m.32-1.12h-4.4a.8.8,0,0,0-.8.8v4.4a.8.8,0,0,0,.8.8h4.4a.8.8,0,0,0,.8-.8v-4.4a.8.8,0,0,0-.8-.8Z" transform="translate(-165.94 -32.13)"/><path d="M170.82,40.7v3.76h-3.76V40.7h3.76m.32-1.12h-4.4a.8.8,0,0,0-.8.8v4.4a.8.8,0,0,0,.8.8h4.4a.8.8,0,0,0,.8-.8v-4.4a.8.8,0,0,0-.8-.8Z" transform="translate(-165.94 -32.13)"/><path d="M183.61,33.25h-9.69a.56.56,0,0,1-.56-.56.57.57,0,0,1,.56-.56h9.69a.57.57,0,0,1,.56.56A.56.56,0,0,1,183.61,33.25Z" transform="translate(-165.94 -32.13)"/><path d="M190.61,35.69H173.92a.56.56,0,0,1-.56-.56.57.57,0,0,1,.56-.56h16.69a.57.57,0,0,1,.56.56A.56.56,0,0,1,190.61,35.69Z" transform="translate(-165.94 -32.13)"/><path d="M180.61,38.13h-6.69a.56.56,0,0,1-.56-.56.57.57,0,0,1,.56-.56h6.69a.57.57,0,0,1,.56.56A.56.56,0,0,1,180.61,38.13Z" transform="translate(-165.94 -32.13)"/><path d="M177.61,40.7h-3.69a.56.56,0,0,1,0-1.12h3.69a.56.56,0,1,1,0,1.12Z" transform="translate(-165.94 -32.13)"/><path d="M186.61,43.14H173.92a.56.56,0,1,1,0-1.12h12.69a.56.56,0,0,1,0,1.12Z" transform="translate(-165.94 -32.13)"/><path d="M183.61,45.58h-9.69a.56.56,0,1,1,0-1.12h9.69a.56.56,0,0,1,0,1.12Z" transform="translate(-165.94 -32.13)"/><path d="M180.61,48.14h-6.69a.56.56,0,0,1,0-1.12h6.69a.56.56,0,0,1,0,1.12Z" transform="translate(-165.94 -32.13)"/><path d="M181.61,50.58h-7.69a.56.56,0,1,1,0-1.12h7.69a.56.56,0,0,1,0,1.12Z" transform="translate(-165.94 -32.13)"/><path d="M188.61,53H173.92a.56.56,0,0,1,0-1.12h14.69a.56.56,0,1,1,0,1.12Z" transform="translate(-165.94 -32.13)"/></svg>