<svg xmlns="http://www.w3.org/2000/svg" viewBox="0 0 18.38 14.7"><path d="M44.85,89.14l0,0a.64.64,0,0,1-.3.19l-.07,0a1.16,1.16,0,0,1-.18,0h0a1,1,0,0,1-.17,0l-.08,0a.64.64,0,0,1-.3-.19l0,0-.79-.73-6.81,6.28a1.8,1.8,0,0,0,.57.1H51.44a1.8,1.8,0,0,0,.57-.1l-6.59-6.07Z" transform="translate(-34.86 -80.09)"/><path d="M35,81.15a1.82,1.82,0,0,0-.16.74V93a1.86,1.86,0,0,0,.13.67l6.8-6.27Z" transform="translate(-34.86 -80.09)"/><path d="M52.24,80.29a1.67,1.67,0,0,0-.8-.2H36.66a1.57,1.57,0,0,0-.49.08l8.1,7.47Z" transform="translate(-34.86 -80.09)"/><path d="M53.18,81.46,46.53,87.6l6.58,6.06a1.86,1.86,0,0,0,.13-.67V81.89A1.54,1.54,0,0,0,53.18,81.46Z" transform="translate(-34.86 -80.09)"/></svg>