<svg xmlns="http://www.w3.org/2000/svg" viewBox="0 0 105.85 57.19"><path d="M453.84,307.41v-7.23H442.5v-.88a5.74,5.74,0,0,0-4.25-5.55c.11-.43.14-.71.15-.74l.08-.68h-2.24a3.91,3.91,0,0,0-2.19-2.95,3.07,3.07,0,0,0,.06-.53,3.15,3.15,0,1,0-6.3,0v0a3.15,3.15,0,0,0-2.55,3.09,2.19,2.19,0,0,0,0,.36h-2.42l.07.67a5.24,5.24,0,0,0,.1.54h-69.3A5.76,5.76,0,0,0,348,299.3v43.59h7.39v-1.11a6.05,6.05,0,0,1,6.05-6h22.64v7.16h4.2v-7.16h40.81a6.05,6.05,0,0,1,6.05,6v1.11h7.2a.18.18,0,0,0,.18-.19V308.62h7.14v34.27h4.2V307.41Zm-20.2,1.21-14.37,9.87-14.83-9.87-1.82-1.21-9-6h50.57l-1.65,1.13-1.2.83-5.9,4.06Zm-48.37-1.21v-6h6.13l9,6H385.27Zm48.35-16.89a2.65,2.65,0,0,1,1.37,1.81h-5.22a2.76,2.76,0,0,1,.16-.51,2.36,2.36,0,0,1,.3-.51,3,3,0,0,1,.52-.54,3.87,3.87,0,0,1,.43-.27,2.52,2.52,0,0,1,1.16-.29h.05A2.59,2.59,0,0,1,433.62,290.52ZM431,286.91a1.94,1.94,0,0,1,1.94,1.94c0,.07,0,.13,0,.19a3.42,3.42,0,0,0-2.47.51,3.11,3.11,0,0,0-1.39-.67v0A1.94,1.94,0,0,1,431,286.91Zm-2.91,3.15.36,0a1.94,1.94,0,0,1,1.06.31,3.67,3.67,0,0,0-.58.87,3.9,3.9,0,0,0-.32,1.12h-2.06a2.2,2.2,0,0,1,0-.36A1.94,1.94,0,0,1,428.05,290.06Zm8.69,3.48.31,0a9.43,9.43,0,0,1-.39,1.18,8.83,8.83,0,0,1-.59,1.2,6,6,0,0,1-5.45,3,5.87,5.87,0,0,1-5.37-3,8.75,8.75,0,0,1-.6-1.24,12,12,0,0,1-.38-1.2Zm-87.56,5.76a4.56,4.56,0,0,1,4.56-4.56h69.62a10.21,10.21,0,0,0,.83,1.82,7.1,7.1,0,0,0,6.43,3.62,7.21,7.21,0,0,0,6.48-3.61,9.56,9.56,0,0,0,.79-1.67,4.56,4.56,0,0,1,3.41,4.4v.88H384.06v20.26H349.18Zm12.24,35.23a7.26,7.26,0,0,0-7.25,7.16h-5V321.64h34.88v12.89Zm25.63,7.15h-1.78v-20h0v-1.2h0V308.62h1.78v11.82h0v1.2h0v20Zm54.25,0h-5a7.26,7.26,0,0,0-7.25-7.16H388.26V321.64h53Zm0-21.25h-53V308.62h14l17,11.33,16.49-11.33h5.53Zm1.2-13h-5l3.77-2.59,1.2-.83,3.78-2.6h6.35v6H442.5Zm10.13,34.27h-1.78V308.62h1.78Z" transform="translate(-347.98 -285.7)"/></svg>