<svg xmlns="http://www.w3.org/2000/svg" viewBox="0 0 27.5 49.35"><path d="M255.63,331.55c-4.53-16-3.1-28-3.1-28H232.08s1.46,12.15-3.16,28.25a2.46,2.46,0,0,0-.06.36,3.52,3.52,0,0,0-.22,1.17v2.52l.81,17.06H233l.76-17.06h1l.69,14.48H239l.64-14.48h5.56l.64,14.48h3.52l.69-14.48h1l.76,17.06h3.52l.81-17.06v-2.52A3.3,3.3,0,0,0,255.63,331.55Zm-22.24-26.82h17.83A82.2,82.2,0,0,0,254,330.19a3.29,3.29,0,0,0-1.26-.25H232a3.36,3.36,0,0,0-1.45.34A82.36,82.36,0,0,0,233.39,304.73Zm-1.56,47H230.6l-.76-15.86h2.69Zm6-2.58H236.6L236,335.83h2.45Zm10.35,0H247l-.58-13.28h2.45Zm-18.34-14.48v-1.32a2.17,2.17,0,0,1,2.17-2.17h20.76a2.17,2.17,0,0,1,2.17,2.17v1.32Zm24.35,17.06H253l-.71-15.86h2.69Z" transform="translate(-228.64 -303.53)"/><path d="M236.89,310.64a.6.6,0,1,0-.6-.6A.6.6,0,0,0,236.89,310.64Z" transform="translate(-228.64 -303.53)"/><path d="M242.39,310.64a.6.6,0,1,0-.6-.6A.6.6,0,0,0,242.39,310.64Z" transform="translate(-228.64 -303.53)"/><path d="M247.89,310.64a.6.6,0,1,0-.6-.6A.6.6,0,0,0,247.89,310.64Z" transform="translate(-228.64 -303.53)"/><path d="M236.89,317.64a.6.6,0,1,0-.6-.6A.6.6,0,0,0,236.89,317.64Z" transform="translate(-228.64 -303.53)"/><path d="M242.39,317.64a.6.6,0,1,0-.6-.6A.6.6,0,0,0,242.39,317.64Z" transform="translate(-228.64 -303.53)"/><path d="M247.89,317.64a.6.6,0,1,0-.6-.6A.6.6,0,0,0,247.89,317.64Z" transform="translate(-228.64 -303.53)"/><path d="M236.89,324.64a.6.6,0,1,0-.6-.6A.6.6,0,0,0,236.89,324.64Z" transform="translate(-228.64 -303.53)"/><path d="M242.39,324.64a.6.6,0,1,0-.6-.6A.6.6,0,0,0,242.39,324.64Z" transform="translate(-228.64 -303.53)"/><path d="M247.89,324.64a.6.6,0,1,0-.6-.6A.6.6,0,0,0,247.89,324.64Z" transform="translate(-228.64 -303.53)"/></svg>