<svg xmlns="http://www.w3.org/2000/svg" viewBox="0 0 90.3 49.35"><path d="M311.93,223.74a4.15,4.15,0,0,1,4.15,4.15v21.55H232.33a4.16,4.16,0,0,1-4.15-4.15v-17.4a4.15,4.15,0,0,1,4.15-4.15h79.6m0-1.2h-79.6a5.34,5.34,0,0,0-5.35,5.35v17.4a5.35,5.35,0,0,0,5.35,5.35h84.76a.2.2,0,0,0,.19-.19V227.89a5.35,5.35,0,0,0-5.35-5.35Z" transform="translate(-226.98 -222.54)"/><path d="M316.08,250.64v15.92a4.13,4.13,0,0,1-4.12,4.12H291.7a4.13,4.13,0,0,1-4.12-4.12V250.64h28.5m1-1.2H286.6a.22.22,0,0,0-.22.22v16.9a5.32,5.32,0,0,0,5.32,5.32H312a5.32,5.32,0,0,0,5.32-5.32v-16.9a.22.22,0,0,0-.22-.22Z" transform="translate(-226.98 -222.54)"/><rect x="29.7" y="1.01" width="1.2" height="26.38"/><rect x="59.4" y="1.01" width="1.2" height="26.38"/><rect x="0.6" y="6.26" width="89.22" height="1.2"/></svg>