<svg xmlns="http://www.w3.org/2000/svg" viewBox="0 0 75.07 49.35"><path d="M101.93,222.54H37.66a5.39,5.39,0,0,0-5.39,5.39v41.53h2v2.42h7.17v-2.42H98.16v2.42h7.17v-2.42h2V227.93A5.39,5.39,0,0,0,101.93,222.54Zm-68.46,28.1v-2.51a3,3,0,0,1,3-2.95h1l.76,4.26.21,1.2.43,2.41.21,1.21.54,3H36.42a3,3,0,0,1-3-3v-3.71ZM66.34,244H39.63v-8.71a3,3,0,0,1,2.95-2.95H63.39a3,3,0,0,1,3,2.95Zm-26.71,1.21H96.21l-17.08,4.18-.32.08-4.06,1-.85.21L64,253.05l-4.94,1.21-12.43,3-5,1.21H41l-.22-1.21-.54-3-.21-1.21-.43-2.41-.22-1.2-.08-.48-.67-3.78ZM99.53,244H72.82v-8.71a3,3,0,0,1,3-2.95H96.58a3,3,0,0,1,3,2.95ZM40.24,270.68H35.47v-1.22h4.77Zm63.89,0H99.36v-1.22h4.77Zm2-2.42H33.47v-11a4.16,4.16,0,0,0,3,1.23h3.37l.18,1a.6.6,0,0,0,.59.5.39.39,0,0,0,.15,0l6.08-1.48h56.39a4.16,4.16,0,0,0,2.95-1.23Zm0-15.21v1.3a3,3,0,0,1-2.95,3H51.73l12.43-3,4.94-1.21L79,250.64l.28-.07,4.63-1.13.32-.08,15.31-3.74,1.21-.3.57-.14h1.87a3,3,0,0,1,2.95,2.95v4.92ZM103.18,244h-2.44v-8.71a4.16,4.16,0,0,0-4.16-4.15H75.77a4.16,4.16,0,0,0-4.16,4.15V244H67.55v-8.71a4.16,4.16,0,0,0-4.16-4.15H42.58a4.16,4.16,0,0,0-4.16,4.15V244h-2a4.12,4.12,0,0,0-3,1.25V227.93a4.2,4.2,0,0,1,4.19-4.19h64.27a4.2,4.2,0,0,1,4.2,4.19v17.29A4.12,4.12,0,0,0,103.18,244Z" transform="translate(-32.27 -222.54)"/></svg>