<svg xmlns="http://www.w3.org/2000/svg" viewBox="0 0 27.5 49.35"><path d="M263.77,329.94h-.15v-26.4H243.17v26.4H243a3.37,3.37,0,0,0-3.37,3.37v19.58h3.53V335.83h1.47v14.48h3.53V335.83h10.44v14.48h3.53V335.83h1.48v17.06h3.52V333.31A3.37,3.37,0,0,0,263.77,329.94Zm-19.4-3.38h18.05v3.38H244.37Zm6.41-1.2V304.74H256v20.62Zm11.64,0H257.2V304.74h5.22Zm-12.84-20.62v20.62h-5.21V304.74ZM242,351.69h-1.13V335.83H242Zm5-2.58h-1.13V335.83H247Zm14,0h-1.13V335.83h1.13Zm5,2.58h-1.12V335.83h1.12Zm-2.32-17.06H240.84v-1.32a2.17,2.17,0,0,1,2.17-2.17h20.76a2.17,2.17,0,0,1,2.17,2.17v1.32Z" transform="translate(-239.64 -303.54)"/></svg>