<svg xmlns="http://www.w3.org/2000/svg" viewBox="0 0 58.3 49.35"><path d="M173.86,321.25h-1.41V308.88a5.35,5.35,0,0,0-5.34-5.34H132.32a5.35,5.35,0,0,0-5.35,5.34v12.37h-1.41a5,5,0,0,0-5,5v24.22h2.18v2.42h9.68v-2.42H167v2.42h9.69v-2.42h2.17V326.25A5,5,0,0,0,173.86,321.25Zm-42.64,30.44h-7.28v-1.22h7.28Zm2.17-2.43H121.77v-23a3.79,3.79,0,0,1,3.79-3.79h4a3.8,3.8,0,0,1,3.8,3.79Zm31.44,0H134.6V335.85h30.23Zm0-14.62H134.6v-5.33h30.23Zm0-8.39v1.85H134.6v-1.85a5,5,0,0,0-5-5h-1.41V308.88a4.14,4.14,0,0,1,4.14-4.13h34.79a4.13,4.13,0,0,1,4.13,4.13v12.37h-1.41A5,5,0,0,0,164.83,326.25Zm10.66,25.44H168.2v-1.22h7.29Zm2.16-2.43H166v-23a3.79,3.79,0,0,1,3.79-3.79h4a3.79,3.79,0,0,1,3.79,3.79Z" transform="translate(-120.56 -303.54)"/></svg>