<svg xmlns="http://www.w3.org/2000/svg" viewBox="0 0 22.55 20.88"><path d="M342.78,35.94h-2.73v-.7a3.1,3.1,0,0,0-3.1-3.11H331.3a3.11,3.11,0,0,0-3.11,3.11v.7h-2.72a2.62,2.62,0,0,0-2.62,2.62V50.4A2.62,2.62,0,0,0,325.47,53h17.31a2.62,2.62,0,0,0,2.62-2.62V38.56A2.63,2.63,0,0,0,342.78,35.94Zm1.5,14.46a1.5,1.5,0,0,1-1.5,1.5H325.47a1.5,1.5,0,0,1-1.5-1.5V38.56a1.5,1.5,0,0,1,1.5-1.5h3.84V35.24a2,2,0,0,1,2-2H337a2,2,0,0,1,2,2v.7l0,1.12h3.88a1.51,1.51,0,0,1,1.5,1.5Z" transform="translate(-322.85 -32.13)"/><path d="M334.12,39a5.51,5.51,0,1,0,5.51,5.51A5.51,5.51,0,0,0,334.12,39Zm0,9.9a4.39,4.39,0,1,1,4.39-4.39A4.4,4.4,0,0,1,334.12,48.87Z" transform="translate(-322.85 -32.13)"/><path d="M342.41,37.94a1,1,0,1,0,1,1A1,1,0,0,0,342.41,37.94Z" transform="translate(-322.85 -32.13)"/><path d="M334.12,41a3.49,3.49,0,1,0,3.49,3.49A3.49,3.49,0,0,0,334.12,41Zm0,5.86a2.37,2.37,0,1,1,2.37-2.37A2.37,2.37,0,0,1,334.12,46.85Z" transform="translate(-322.85 -32.13)"/><path d="M328.1,48.9h-1.69a.56.56,0,1,0,0,1.12h1.69a.56.56,0,0,0,0-1.12Z" transform="translate(-322.85 -32.13)"/><path d="M331.48,37h5.28A1.21,1.21,0,0,0,338,35.8v-.47a1.21,1.21,0,0,0-1.21-1.2h-5.28a1.21,1.21,0,0,0-1.21,1.2v.47A1.21,1.21,0,0,0,331.48,37Zm-.21-1.67a.21.21,0,0,1,.21-.2h5.28a.2.2,0,0,1,.21.2v.47a.2.2,0,0,1-.21.2h-5.28a.21.21,0,0,1-.21-.2Z" transform="translate(-322.85 -32.13)"/></svg>