<svg xmlns="http://www.w3.org/2000/svg" viewBox="0 0 56.51 56.5"><rect x="172.73" y="407.14" width="35.22" height="2" rx="1" transform="translate(186.49 -399.17) rotate(45)"/><rect x="153.05" y="420.9" width="47.44" height="2" rx="0.97" transform="translate(192.25 -385.55) rotate(45)"/><rect x="188.92" y="400.33" width="16.03" height="2" rx="0.92" transform="translate(183.61 -405.83) rotate(45)"/><rect x="156.23" y="413.76" width="54.59" height="2" rx="1" transform="translate(189.18 -392.42) rotate(45)"/><rect x="155.99" y="428.03" width="27.18" height="2" rx="1" transform="translate(195.18 -378.38) rotate(45)"/><rect x="157.76" y="435.06" width="9.69" height="2" rx="1" transform="translate(198.11 -371.38) rotate(45)"/><path d="M157.86,397.55a1.66,1.66,0,0,1,0,3.31v3.86a1.66,1.66,0,0,1,0,3.31v3.31a1.65,1.65,0,0,1,0,3.3v3.86a1.66,1.66,0,0,1,0,3.31v3.86a1.66,1.66,0,0,1,0,3.31v4.42a1.66,1.66,0,0,1,0,3.31v3.92h2v-2.52a3.65,3.65,0,0,0,0-6.11v-1.62a3.65,3.65,0,0,0,0-6.11v-1.06a3.65,3.65,0,0,0,0-6.11v-1.05a3.66,3.66,0,0,0,0-6.12v-.5a3.65,3.65,0,0,0,0-6.11v-1.06a3.65,3.65,0,0,0,0-6.11v-2.61h-2Z" transform="translate(-157.86 -384.13)"/><path d="M204.94,397.55a1.66,1.66,0,0,0,0,3.31v3.86a1.66,1.66,0,0,0,0,3.31v3.31a1.65,1.65,0,0,0,0,3.3v3.86a1.66,1.66,0,0,0,0,3.31v3.86a1.66,1.66,0,0,0,0,3.31v4.42a1.66,1.66,0,0,0,0,3.31v3.92h-2v-2.52a3.65,3.65,0,0,1,0-6.11v-1.62a3.65,3.65,0,0,1,0-6.11v-1.06a3.65,3.65,0,0,1,0-6.11v-1.05a3.66,3.66,0,0,1,0-6.12v-.5a3.65,3.65,0,0,1,0-6.11v-1.06a3.65,3.65,0,0,1,0-6.11v-2.61h2Z" transform="translate(-157.86 -384.13)"/><path d="M200.93,393.54a1.66,1.66,0,0,1-3.31,0h-3.86a1.65,1.65,0,1,1-3.3,0h-3.31a1.66,1.66,0,0,1-3.31,0H180a1.66,1.66,0,0,1-3.31,0h-3.86a1.66,1.66,0,0,1-3.31,0h-4.42a1.66,1.66,0,0,1-3.31,0h-3.91v2h2.51a3.66,3.66,0,0,0,6.12,0h1.61a3.66,3.66,0,0,0,6.12,0h1.05a3.65,3.65,0,0,0,6.11,0h1.06a3.65,3.65,0,0,0,6.11,0h.5a3.66,3.66,0,0,0,6.12,0h1.05a3.65,3.65,0,0,0,6.11,0h2.61v-2Z" transform="translate(-157.86 -384.13)"/><path d="M200.93,440.63a1.66,1.66,0,1,0-3.31,0h-3.86a1.65,1.65,0,1,0-3.3,0h-3.31a1.66,1.66,0,1,0-3.31,0H180a1.66,1.66,0,1,0-3.31,0h-3.86a1.66,1.66,0,1,0-3.31,0h-4.42a1.66,1.66,0,1,0-3.31,0h-3.91v-2h2.51a3.65,3.65,0,0,1,6.12,0h1.61a3.65,3.65,0,0,1,6.12,0h1.05a3.64,3.64,0,0,1,6.11,0h1.06a3.64,3.64,0,0,1,6.11,0h.5a3.65,3.65,0,0,1,6.12,0h1.05a3.64,3.64,0,0,1,6.11,0h2.61v2Z" transform="translate(-157.86 -384.13)"/><path d="M212.36,384.13h-2a1.66,1.66,0,0,1-3.31,0h-3.86a1.66,1.66,0,0,1-3.31,0h-3.3a1.66,1.66,0,0,1-3.31,0H189.4a1.66,1.66,0,0,1-3.31,0h-3.86a1.66,1.66,0,0,1-3.31,0H174.5a1.66,1.66,0,0,1-3.31,0h-3.92v4a1.65,1.65,0,0,1,0,3.3h3.23a3.62,3.62,0,0,0-1.26-4.7v-.61h.52a3.65,3.65,0,0,0,6.11,0h1.62a3.65,3.65,0,0,0,6.11,0h1.06a3.65,3.65,0,0,0,6.11,0h1a3.66,3.66,0,0,0,6.12,0h.5a3.65,3.65,0,0,0,6.11,0h1.06a3.65,3.65,0,0,0,6.11,0h.61v.61a3.65,3.65,0,0,0,0,6.11v1a3.66,3.66,0,0,0,0,6.12v.5a3.65,3.65,0,0,0,0,6.11v1.06a3.65,3.65,0,0,0,0,6.11v1.05a3.66,3.66,0,0,0,0,6.12v1.61a3.66,3.66,0,0,0,0,6.12v.51h-.61A3.64,3.64,0,0,0,207,428v3.25h0a1.66,1.66,0,0,1,3.31,0h4v-3.92a1.65,1.65,0,1,1,0-3.3v-4.43a1.65,1.65,0,0,1,0-3.3V412.4a1.66,1.66,0,0,1,0-3.31v-3.86a1.66,1.66,0,0,1,0-3.31v-3.31a1.65,1.65,0,1,1,0-3.3v-3.86a1.66,1.66,0,0,1,0-3.31v-4Z" transform="translate(-157.86 -384.13)"/></svg>