<svg xmlns="http://www.w3.org/2000/svg" viewBox="0 0 28 20.88"><path d="M141.63,42.29c2.32,0,4.21-1.42,4.21-3.17S144,36,141.63,36s-4.21,1.42-4.21,3.16S139.31,42.29,141.63,42.29Zm0-5.21c1.69,0,3.09.94,3.09,2s-1.42,2.05-3.09,2.05-3.08-.94-3.08-2.05,1.41-2,3.08-2Z" transform="translate(-132.04 -32.13)"/><path d="M159.48,45h-8.31V39.12c0-3.85-4.28-7-9.57-7s-9.56,3.14-9.56,7V46c0,3.55,3.63,6.47,8.3,6.92h.1c.39,0,.78.06,1.18.06h17.86a.56.56,0,0,0,.56-.56V45.54A.56.56,0,0,0,159.48,45ZM141.63,33.27c4.64,0,8.44,2.62,8.44,5.85S146.3,45,141.63,45s-8.44-2.63-8.44-5.86S137,33.27,141.63,33.27Zm8.44,9.13V45h-3.26A8.46,8.46,0,0,0,150,42.4Zm8.84,9.49h-1.12V49.05a.57.57,0,1,0-1.13,0V51.9h-2.25V50.35a.56.56,0,1,0-1.12,0V51.9H151V50.35a.56.56,0,1,0-1.12,0V51.9h-2.25V49.05a.57.57,0,1,0-1.13,0V51.9h-2.15V50.35a.57.57,0,0,0-1.13,0V51.9H141V50.35a.56.56,0,1,0-1.12,0v1.41c-3.8-.56-6.66-2.91-6.66-5.73V42.4c1.61,2.21,4.78,3.7,8.44,3.7h17.25Z" transform="translate(-132.04 -32.13)"/></svg>