<svg xmlns="http://www.w3.org/2000/svg" viewBox="0 0 58.3 49.35"><path d="M103.4,222.54H52.67a3.79,3.79,0,0,0-3.79,3.78v5.35A3.79,3.79,0,0,0,52,235.39v34.07h3.61v2.42h8v-2.42h29v2.42h8v-2.42h3.6V235.39a3.78,3.78,0,0,0,3.08-3.72v-5.35A3.78,3.78,0,0,0,103.4,222.54ZM62.32,270.68H56.77v-1.22h5.55Zm37,0H93.74v-1.22H99.3Zm1.2-2.42H53.16v-32.8H102.9v32.8ZM106,231.67a2.58,2.58,0,0,1-2.46,2.58h-51a2.59,2.59,0,0,1-2.47-2.58v-5.35a2.59,2.59,0,0,1,2.59-2.58H103.4a2.59,2.59,0,0,1,2.58,2.58Z" transform="translate(-48.88 -222.54)"/><path d="M59.54,244.26a.6.6,0,0,0,0,1.2.6.6,0,1,0,0-1.2Z" transform="translate(-48.88 -222.54)"/><path d="M59.54,251.26a.6.6,0,0,0,0,1.2.6.6,0,1,0,0-1.2Z" transform="translate(-48.88 -222.54)"/><path d="M59.54,258.26a.6.6,0,1,0,0,1.2.6.6,0,1,0,0-1.2Z" transform="translate(-48.88 -222.54)"/><path d="M68.79,244.26a.6.6,0,1,0,.6.6A.6.6,0,0,0,68.79,244.26Z" transform="translate(-48.88 -222.54)"/><path d="M68.79,251.26a.6.6,0,1,0,.6.6A.6.6,0,0,0,68.79,251.26Z" transform="translate(-48.88 -222.54)"/><path d="M68.79,258.26a.6.6,0,1,0,.6.6A.6.6,0,0,0,68.79,258.26Z" transform="translate(-48.88 -222.54)"/><path d="M78,244.26a.6.6,0,0,0,0,1.2.6.6,0,1,0,0-1.2Z" transform="translate(-48.88 -222.54)"/><path d="M78,251.26a.6.6,0,0,0,0,1.2.6.6,0,1,0,0-1.2Z" transform="translate(-48.88 -222.54)"/><path d="M78,258.26a.6.6,0,1,0,0,1.2.6.6,0,1,0,0-1.2Z" transform="translate(-48.88 -222.54)"/><path d="M87.28,244.26a.6.6,0,1,0,.6.6A.6.6,0,0,0,87.28,244.26Z" transform="translate(-48.88 -222.54)"/><path d="M87.28,251.26a.6.6,0,1,0,.6.6A.6.6,0,0,0,87.28,251.26Z" transform="translate(-48.88 -222.54)"/><path d="M87.28,258.26a.6.6,0,1,0,.6.6A.6.6,0,0,0,87.28,258.26Z" transform="translate(-48.88 -222.54)"/><path d="M96.52,244.26a.6.6,0,1,0,.6.6A.6.6,0,0,0,96.52,244.26Z" transform="translate(-48.88 -222.54)"/><path d="M96.52,251.26a.6.6,0,1,0,.6.6A.6.6,0,0,0,96.52,251.26Z" transform="translate(-48.88 -222.54)"/><path d="M96.52,258.26a.6.6,0,1,0,.6.6A.6.6,0,0,0,96.52,258.26Z" transform="translate(-48.88 -222.54)"/></svg>