<svg xmlns="http://www.w3.org/2000/svg" viewBox="0 0 49.34 49.35"><path d="M67.36,223.74a3.8,3.8,0,0,1,3.8,3.8v16.8H54.36a3.8,3.8,0,0,1-3.8-3.8v-13a3.8,3.8,0,0,1,3.8-3.8h13m0-1.2h-13a5,5,0,0,0-5,5v13a5,5,0,0,0,5,5h18v-18a5,5,0,0,0-5-5Z" transform="translate(-49.36 -222.54)"/><path d="M93.7,223.74a3.8,3.8,0,0,1,3.8,3.8v13a3.8,3.8,0,0,1-3.8,3.8H76.9v-16.8a3.8,3.8,0,0,1,3.8-3.8h13m0-1.2h-13a5,5,0,0,0-5,5v18h18a5,5,0,0,0,5-5v-13a5,5,0,0,0-5-5Z" transform="translate(-49.36 -222.54)"/><path d="M71.16,250.08v16.8a3.8,3.8,0,0,1-3.8,3.8h-13a3.8,3.8,0,0,1-3.8-3.8v-13a3.8,3.8,0,0,1,3.8-3.8h16.8m1.2-1.2h-18a5,5,0,0,0-5,5v13a5,5,0,0,0,5,5h13a5,5,0,0,0,5-5v-18Z" transform="translate(-49.36 -222.54)"/><path d="M93.7,250.08a3.8,3.8,0,0,1,3.8,3.8v13a3.8,3.8,0,0,1-3.8,3.8h-13a3.8,3.8,0,0,1-3.8-3.8v-16.8H93.7m0-1.2h-18v18a5,5,0,0,0,5,5h13a5,5,0,0,0,5-5v-13a5,5,0,0,0-5-5Z" transform="translate(-49.36 -222.54)"/></svg>