<svg xmlns="http://www.w3.org/2000/svg" viewBox="0 0 20.3 20.78"><path d="M53,67.4l-4-3.75a1.09,1.09,0,0,0-.63-.27,1.06,1.06,0,0,0-.72.24l-.94.9a2.17,2.17,0,0,1-2.72-.35l-2.75-3c-.76-1-.76-1.85-.16-2.52.25-.22.87-.9,1.11-1.12a1,1,0,0,0,.33-.69,1,1,0,0,0-.24-.71L38.9,51.61a1,1,0,0,0-.77-.41,1,1,0,0,0-.84.36l-.06.08c-.84,1-2.63,2.43-2.6,4.81.06,4.89,8.88,14.46,13.17,14.73,1.33.09,2.63-.23,5.11-2.23A1,1,0,0,0,53,67.4Z" transform="translate(-34.63 -50.41)"/><path d="M54.9,60.87a.76.76,0,0,1-.66.54.75.75,0,0,1-.81-.68,10,10,0,0,0-7.24-8.79l-.17,0A.74.74,0,0,1,45.5,51a.76.76,0,0,1,.92-.53l.19.06a11.52,11.52,0,0,1,8.31,10.1A.8.8,0,0,1,54.9,60.87Z" transform="translate(-34.63 -50.41)"/><path d="M51,60.55a.78.78,0,0,1-.58.53.76.76,0,0,1-.88-.6,6.23,6.23,0,0,0-3.79-4.64.75.75,0,0,1,.57-1.39A7.73,7.73,0,0,1,51,60.2.69.69,0,0,1,51,60.55Z" transform="translate(-34.63 -50.41)"/></svg>