<svg xmlns="http://www.w3.org/2000/svg" viewBox="0 0 20.74 20.74"><path d="M80,78a10.14,10.14,0,0,0-10.18,10.1,10,10,0,0,0,1.46,5.22l-1.84,5.42L75.1,97A10.13,10.13,0,1,0,80,78Zm5.8,14a2.86,2.86,0,0,1-1.91,1.33c-.51.05-.51.42-3.39-.7a11.6,11.6,0,0,1-4.83-4.24,5.46,5.46,0,0,1-1.15-2.9,3.13,3.13,0,0,1,1-2.34,1,1,0,0,1,.75-.35h.52c.17,0,.42-.07.66.49s.8,1.94.87,2.08a.5.5,0,0,1,0,.49,1.72,1.72,0,0,1-.28.47c-.14.17-.3.37-.42.49s-.29.3-.13.58a8.66,8.66,0,0,0,1.58,1.94,7.87,7.87,0,0,0,2.27,1.39c.28.14.45.12.61-.07s.71-.82.9-1.1.37-.23.63-.14,1.65.77,1.94.91.47.21.54.33A2.33,2.33,0,0,1,85.82,92Z" transform="translate(-69.46 -78.04)"/></svg>