<svg xmlns="http://www.w3.org/2000/svg" viewBox="0 0 25.25 20.88"><path d="M228.26,32.13H209.14a3.07,3.07,0,0,0-3.07,3.07V50A3.06,3.06,0,0,0,209.14,53h19.12A3.06,3.06,0,0,0,231.32,50V35.2A3.07,3.07,0,0,0,228.26,32.13ZM220.44,51.9h-11.3A2,2,0,0,1,207.19,50V35.2a2,2,0,0,1,1.95-2h16.12a2,2,0,0,1,1.94,2v4h-5.74a3.38,3.38,0,0,0,0,6.75h5.74v4a1.94,1.94,0,0,1-1.94,1.95Zm6.76-7.07h-5.74a2.26,2.26,0,0,1,0-4.51h5.74Zm3,5.12a1.94,1.94,0,0,1-1.94,1.95h-.65a3,3,0,0,0,.71-1.95V35.2a3.07,3.07,0,0,0-.71-2h.65a2,2,0,0,1,1.94,2Z" transform="translate(-206.07 -32.13)"/><path d="M220,42.58a1.46,1.46,0,1,0,1.45-1.46A1.46,1.46,0,0,0,220,42.58Zm1.45-.34a.34.34,0,0,1,.34.34.34.34,0,1,1-.67,0A.34.34,0,0,1,221.48,42.24Z" transform="translate(-206.07 -32.13)"/></svg>