<svg xmlns="http://www.w3.org/2000/svg" width="67.17" height="61.02" viewBox="0 0 67.17 61.02"><path d="M381.21,397.19h-1.58v-3.31a9.75,9.75,0,0,0-9.75-9.75h-1.2v-3.44a1,1,0,0,0-2,0v3.44H327.63a9.74,9.74,0,0,0-9.75,9.75v19.18a3.07,3.07,0,0,0,3.06,3.07h.75v3.22a2.19,2.19,0,0,0,2.19,2.19h.81v2.4a1,1,0,0,0,2,0v-2.4h.81a2.19,2.19,0,0,0,2.19-2.19v-3.22h.75a3.07,3.07,0,0,0,3.06-3.07V400.8a1.62,1.62,0,0,1,1.61-1.61h18.94a1.62,1.62,0,0,1,1.62,1.61V427H322.94a5.06,5.06,0,0,0-5.06,5.06v8.65h61.75V421.63h1.58A3.83,3.83,0,0,0,385,417.8V401A3.83,3.83,0,0,0,381.21,397.19Zm-53.52,22.16a.2.2,0,0,1-.19.19h-3.62a.19.19,0,0,1-.19-.19v-3.22h4Zm3.81-6.29a1.07,1.07,0,0,1-1.06,1.07h-9.5a1.06,1.06,0,0,1-1.06-1.07v-2.35H331.5v2.35ZM322.94,429h34.7l0,0v0h20v5.85H319.88v-2.79A3.06,3.06,0,0,1,322.94,429Zm-3.06,9.71v-1.86h57.75v1.86ZM357.67,427V400.8a3.62,3.62,0,0,0-3.62-3.61H335.11a3.61,3.61,0,0,0-3.61,3.61v7.91H319.88V393.88a7.75,7.75,0,0,1,7.75-7.75h42.25a7.76,7.76,0,0,1,7.75,7.75V427ZM383,417.8a1.84,1.84,0,0,1-1.83,1.83h-1.58V399.19h1.58A1.83,1.83,0,0,1,383,401Z" transform="translate(-317.88 -379.69)" fill="#eeebe4"/><path d="M325.69,389.13a1,1,0,0,0-1,1v3.06a1,1,0,0,0,2,0v-3.06A1,1,0,0,0,325.69,389.13Z" transform="translate(-317.88 -379.69)" fill="#eeebe4"/><path d="M332.5,389.13a1,1,0,0,0-1,1v3.06a1,1,0,1,0,2,0v-3.06A1,1,0,0,0,332.5,389.13Z" transform="translate(-317.88 -379.69)" fill="#eeebe4"/><path d="M368.68,397.29v-1.63a1,1,0,0,0-2,0v1.63a5.5,5.5,0,1,0,2,0Zm-1,8.92a3.51,3.51,0,1,1,3.5-3.51A3.51,3.51,0,0,1,367.68,406.21Z" transform="translate(-317.88 -379.69)" fill="#eeebe4"/><path d="M367.65,410.61a5.51,5.51,0,1,0,5.5,5.51A5.5,5.5,0,0,0,367.65,410.61Zm0,9a3.51,3.51,0,1,1,3.5-3.51A3.51,3.51,0,0,1,367.65,419.63Z" transform="translate(-317.88 -379.69)" fill="#eeebe4"/></svg>