<svg xmlns="http://www.w3.org/2000/svg" width="44.89" height="65.05" viewBox="0 0 44.89 65.05"><path d="M85.82,427.31a4.18,4.18,0,0,1-3.6-2,1,1,0,0,0-1.73,1,6.21,6.21,0,0,0,5.33,3c4.65,0,10.4,3.76,10.4,8.4v2a1,1,0,1,0,2,0v-2C98.24,432,91.58,427.31,85.82,427.31Z" transform="translate(-53.36 -384.13)" fill="#eeebe4"/><path d="M77.42,426.84a7.68,7.68,0,0,1-6-1.17,5.86,5.86,0,0,0,.53-2.06A13.52,13.52,0,0,0,89.3,410.73v-8.27a7.07,7.07,0,0,0-7.06-7.07H69.36a7.07,7.07,0,0,0-7.06,7.07V409a2.08,2.08,0,0,1-1.14-1.85v-5.25c0-14.09,11.24-18.16,21.75-14.5l-.81.33a1,1,0,0,0,.28,1.94l1.78.19a11.71,11.71,0,0,1,8.37,4.91,8.62,8.62,0,0,0-2,5.49v6.89a1,1,0,1,0,2,0v-6.89a6.58,6.58,0,0,1,1.91-4.65,1,1,0,0,0,.29-.64,1.11,1.11,0,0,0-.23-.8,13.68,13.68,0,0,0-8.34-6A1,1,0,0,0,86,386.5c-6.81-3.28-16.08-3.63-21.85,1.94-4.68,4.51-5.06,10.92-5,13.48v5.24a4.12,4.12,0,0,0,3.17,4A13.52,13.52,0,0,0,70,422.84v.27a4.2,4.2,0,0,1-4.22,4.2c-5.76,0-12.42,4.66-12.42,10.42v2a1,1,0,0,0,2,0v-2c0-4.64,5.75-8.4,10.4-8.4a6.1,6.1,0,0,0,4.56-2,9.7,9.7,0,0,0,7.51,1.46,1,1,0,1,0-.43-2Zm-13.1-16.19v-8.19a5.05,5.05,0,0,1,5-5H82.24a5.05,5.05,0,0,1,5,5v8.19a11.48,11.48,0,0,1-23,0Z" transform="translate(-53.36 -384.13)" fill="#eeebe4"/><path d="M87.71,434.24a3.55,3.55,0,0,1,2.58,1.05,3.79,3.79,0,0,1,1,2.67,5,5,0,0,1-1.49,3.32,41.53,41.53,0,0,1-4.73,4.2c-.56.45-1.17.94-1.81,1.47-.63-.53-1.24-1-1.8-1.47a40.67,40.67,0,0,1-4.73-4.2,4.94,4.94,0,0,1-1.5-3.32,3.8,3.8,0,0,1,1-2.67,3.54,3.54,0,0,1,2.58-1.05,3.27,3.27,0,0,1,2,.64,4.38,4.38,0,0,1,.86.86l1.59,2.09,1.59-2.09a4.42,4.42,0,0,1,.87-.86,3.25,3.25,0,0,1,2-.64m0-2a5.17,5.17,0,0,0-3.15,1,6.63,6.63,0,0,0-1.28,1.26A6.31,6.31,0,0,0,82,433.27a5.19,5.19,0,0,0-3.15-1,5.58,5.58,0,0,0-4,1.65A5.82,5.82,0,0,0,73.25,438a6.94,6.94,0,0,0,2,4.64,41.78,41.78,0,0,0,5,4.43h0l2.28,1.86a1.2,1.2,0,0,0,.77.28,1.22,1.22,0,0,0,.78-.28L86.34,447a41,41,0,0,0,5-4.43,6.9,6.9,0,0,0,2-4.64,5.77,5.77,0,0,0-1.59-4.07,5.56,5.56,0,0,0-4-1.65Z" transform="translate(-53.36 -384.13)" fill="#eeebe4"/></svg>