<svg xmlns="http://www.w3.org/2000/svg" width="43.95" height="56.58" viewBox="0 0 43.95 56.58"><path d="M133.55,386.13l14.2,14.2V434.7a4,4,0,0,1-4,4H111.81a4,4,0,0,1-4-4V390.13a4,4,0,0,1,4-4h21.74m.31-2H111.81a6,6,0,0,0-6,6V434.7a6,6,0,0,0,6,6h31.93a6,6,0,0,0,6-6V400a1.23,1.23,0,0,0-.36-.87l-14.65-14.65a1.27,1.27,0,0,0-.88-.36Z" transform="translate(-105.8 -384.13)" fill="#eeebe4"/><rect x="9.54" y="21.29" width="24.87" height="2" rx="1" fill="#eeebe4"/><rect x="9.54" y="26.62" width="24.87" height="2" rx="1" fill="#eeebe4"/><rect x="9.54" y="31.96" width="24.87" height="2" rx="1" fill="#eeebe4"/><rect x="9.54" y="37.29" width="12.36" height="2" rx="1" fill="#eeebe4"/><rect x="23.96" y="37.29" width="3.27" height="2" rx="1" fill="#eeebe4"/><path d="M137.56,400.32a4,4,0,0,1-4-4V385.13h-2v11.19a6,6,0,0,0,6,6h11.36v-2Z" transform="translate(-105.8 -384.13)" fill="#eeebe4"/></svg>