<svg xmlns="http://www.w3.org/2000/svg" width="60.62" height="64.32" viewBox="0 0 60.62 64.32"><path d="M484.22,425.56a5.17,5.17,0,0,0,2-8.51,5.17,5.17,0,0,0,1-8.89,5.17,5.17,0,0,0-3.06-9.34H467.09a45.41,45.41,0,0,1,1.66-10.95c0-.12.07-.24.11-.36a19,19,0,0,0,.3-4.79,6,6,0,0,0-5.8-5.13c-1.58.06-2,1.85-2.61,4.34-.79,3.27-2,8.22-6.07,11.48a17.17,17.17,0,0,0-5.89,10.78c-.14.78-.22,1.51-.28,2.19H438a27.71,27.71,0,0,1,2.33-7.13,1,1,0,0,0-.46-1.34,1,1,0,0,0-.44-.1,1,1,0,0,0-.9.56l0,.05h0a30.44,30.44,0,0,0-2.15,6h0l0,.07h0v0h0v0h-.4v.05h0v0h0a29.74,29.74,0,0,0-.34,3.15,1,1,0,0,0,1,1.05h0a1,1,0,0,0,1-.94c0-.55.08-1.09.14-1.64h10.76c0,1.05.06,1.77.08,2v12.75a10.92,10.92,0,0,0,1.65,5.79h-6.88a1,1,0,0,0-.44-.1,1,1,0,0,0-.78,1.62l.52.64h.17l0,0H443l.08.09h.16a30.4,30.4,0,0,0,7.91,6.3.94.94,0,0,0,.48.13,1,1,0,0,0,.49-1.88,28.3,28.3,0,0,1-7-5.46h6.59a11,11,0,0,0,7.82,3.25H474.8a1,1,0,0,0,0-2h-4.62a3.16,3.16,0,0,1,0-6.32h10.18a3.16,3.16,0,0,1,0,6.32h-1.23a1,1,0,0,0,0,2h1.23a5.18,5.18,0,0,0,5.17-5.18A5.1,5.1,0,0,0,484.22,425.56Zm3.1-13.23a3.16,3.16,0,0,1-3.16,3.16H472a3.17,3.17,0,0,1-3.16-3.16h0a3.16,3.16,0,0,1,3.16-3.16h12.21A3.15,3.15,0,0,1,487.32,412.33ZM468.79,404a3.17,3.17,0,0,1,3.15-3.16h12.22a3.16,3.16,0,0,1,0,6.32H472a3.16,3.16,0,0,1-3.16-3.16Zm-1.58,16.67h0a5.14,5.14,0,0,0,1.31,3.44A5.17,5.17,0,0,0,465,429a5.12,5.12,0,0,0,1.08,3.16h-6.54a9,9,0,0,1-9-9V413.9a4.46,4.46,0,0,0,.43.33,1,1,0,0,0,.57.18,1,1,0,0,0,.58-1.83,3.93,3.93,0,0,1-1.58-2.39c-.05-.47-.93-10.12,5.43-15.21,4.61-3.69,5.91-9,6.76-12.58a12.77,12.77,0,0,1,.86-2.8,4.05,4.05,0,0,1,3.63,3.5,13.36,13.36,0,0,1-.46,4.56,49,49,0,0,0-1.67,11.47c-.23,4.35-.44,8.11-3.24,12.67a1,1,0,0,0,.34,1.38.9.9,0,0,0,.52.15,1,1,0,0,0,.86-.48c2.71-4.41,3.19-8,3.44-12h.89a5.14,5.14,0,0,0-1.09,3.16h0a5.17,5.17,0,0,0,2.12,4.17,5.17,5.17,0,0,0-2.12,4.17h0a5.17,5.17,0,0,0,2.34,4.32A5.14,5.14,0,0,0,467.21,420.66Zm15.35,3.16H472.38a3.16,3.16,0,0,1-3.16-3.16h0a3.16,3.16,0,0,1,3-3.16h10.41a3.16,3.16,0,0,1-.11,6.32Z" transform="translate(-435.52 -377.58)" fill="#eeebe4"/><path d="M441.85,395.65a1,1,0,0,0,.81-.42,28.26,28.26,0,0,1,8.09-7.66,1,1,0,0,0,.32-1.38,1,1,0,0,0-1.38-.32,30.88,30.88,0,0,0-3.45,2.53h0l0,0h0l-.2.17h-.23l0,0h-.25l-.06.06h-.21l-.13.12h0v0h-.1a30.73,30.73,0,0,0-3.91,4.52,1,1,0,0,0,.24,1.39A1,1,0,0,0,441.85,395.65Z" transform="translate(-435.52 -377.58)" fill="#eeebe4"/><path d="M437.65,414.7a1,1,0,0,0-1-.89h-.12a1,1,0,0,0-.88,1.1,29,29,0,0,0,.5,3.1h0v0h.17v0h0v0h0v0h0a30.18,30.18,0,0,0,2.89,7.33,1,1,0,0,0,.88.52.94.94,0,0,0,.48-.13,1,1,0,0,0,.39-1.36A28,28,0,0,1,437.65,414.7Z" transform="translate(-435.52 -377.58)" fill="#eeebe4"/><path d="M467.45,439.86h-.05c-.53,0-1.06.05-1.59.05a28.21,28.21,0,0,1-9.44-1.62,1.27,1.27,0,0,0-.34-.05,1,1,0,0,0-.33,1.94,30.15,30.15,0,0,0,6,1.45h0l.2,0h4.31c.42,0,.85,0,1.27,0a1,1,0,0,0-.06-2Z" transform="translate(-435.52 -377.58)" fill="#eeebe4"/><path d="M482.76,434.51a.93.93,0,0,0-.57.19A28.13,28.13,0,0,1,472,439.22a1,1,0,0,0,.21,2l.22,0a30.17,30.17,0,0,0,9-3.63h.35l.14-.08h.55l.11-.07h0l0,0h.3l0,0h0l.34-.24a1,1,0,0,0-.58-1.82Z" transform="translate(-435.52 -377.58)" fill="#eeebe4"/><path d="M493.29,421.92a.91.91,0,0,0-.39-.08,1,1,0,0,0-.92.62,28.32,28.32,0,0,1-6.22,9.23,1,1,0,0,0,0,1.42,1,1,0,0,0,.71.29,1,1,0,0,0,.7-.28,30.31,30.31,0,0,0,6-8.48h0v0h.11l0,0h.15l.07-.18h0l0-.08h0l.23-.53A1,1,0,0,0,493.29,421.92Z" transform="translate(-435.52 -377.58)" fill="#eeebe4"/><path d="M496.14,411.54h0v0h0v0h0v0h0v0h0v0h0v0h0v0h0v0h0v0h0v-.05h0v0h0a31.41,31.41,0,0,0-.27-3.39h0v0h0v0h0l-.09-.59a1,1,0,0,0-1-.83h-.16a1,1,0,0,0-.82,1.15,29.38,29.38,0,0,1,.38,4.69,28.42,28.42,0,0,1-.73,6.45,1,1,0,0,0,.75,1.2.82.82,0,0,0,.22,0,1,1,0,0,0,1-.77A29.75,29.75,0,0,0,496,415h0v-.1h0v-.08h0v0h0v-.08h0v-.08h0v0h0v0h0v0h0v0h0v-.06h0v-.05h0v0h0v-.05h0v0h0v0h0v0h0v0h0v0h0v0h0v0h0v0h0v0h0v0h0v0h0v0h0v0h0v0h0v0h0v0h0v0h0v0h0v0h0Z" transform="translate(-435.52 -377.58)" fill="#eeebe4"/><path d="M492.61,402.36a1,1,0,0,0,.95.68.87.87,0,0,0,.32-.06,1,1,0,0,0,.63-1.27,30.35,30.35,0,0,0-5.18-9.29h0a1.15,1.15,0,0,0-.14-.17h-.28l0,0h-.12l0,0h0l0,0h0l-.19-.21a1,1,0,0,0-.75-.33,1,1,0,0,0-.74,1.66A28.15,28.15,0,0,1,492.61,402.36Z" transform="translate(-435.52 -377.58)" fill="#eeebe4"/><path d="M473.75,384.37a28.09,28.09,0,0,1,9.86,5.16,1,1,0,0,0,.63.22,1,1,0,0,0,.63-1.78h0a30.24,30.24,0,0,0-5.81-3.69h0l-.34-.16h0l0,0h-.42l-.08,0h-.3a29.46,29.46,0,0,0-3.59-1.29.84.84,0,0,0-.27,0,1,1,0,0,0-1,.72A1,1,0,0,0,473.75,384.37Z" transform="translate(-435.52 -377.58)" fill="#eeebe4"/><path d="M454.51,385.5a1,1,0,0,0,.38-.08,28,28,0,0,1,3.72-1.25c.23-.78.42-1.52.58-2.2a29.93,29.93,0,0,0-5.07,1.61,1,1,0,0,0,.39,1.92Z" transform="translate(-435.52 -377.58)" fill="#eeebe4"/></svg>