<svg xmlns="http://www.w3.org/2000/svg" width="56.58" height="56.58" viewBox="0 0 56.58 56.58"><path d="M411.6,384.13h-8.23a1,1,0,0,0-1,1v8.22a1,1,0,0,0,2,0v-7.22h7.23a1,1,0,0,0,0-2Z" transform="translate(-402.37 -384.13)" fill="#eeebe4"/><path d="M458,384.13h-8.23a1,1,0,0,0,0,2H457v7.22a1,1,0,0,0,2,0v-8.22A1,1,0,0,0,458,384.13Z" transform="translate(-402.37 -384.13)" fill="#eeebe4"/><path d="M411.6,438.71h-7.23v-7.23a1,1,0,0,0-2,0v8.23a1,1,0,0,0,1,1h8.23a1,1,0,0,0,0-2Z" transform="translate(-402.37 -384.13)" fill="#eeebe4"/><path d="M458,430.48a1,1,0,0,0-1,1v7.23h-7.23a1,1,0,0,0,0,2H458a1,1,0,0,0,1-1v-8.23A1,1,0,0,0,458,430.48Z" transform="translate(-402.37 -384.13)" fill="#eeebe4"/><path d="M448.69,401.91l-17.32-10.1a1.38,1.38,0,0,0-.71-.17,1.41,1.41,0,0,0-.71.17l-17.31,10.1a.49.49,0,0,0-.3.41v22a.49.49,0,0,0,.3.41L430,434.83a1.52,1.52,0,0,0,.71.17,1.49,1.49,0,0,0,.71-.17l17.32-10.1a.5.5,0,0,0,.29-.41v-22A.5.5,0,0,0,448.69,401.91Zm-18-8.2,14.76,8.61-14.76,8.61-14.76-8.61Zm-16.32,29.2V403.73l15.32,8.93v19.69l-13.76-8,11.37-6.63v-2.31Zm17.32,9.44V412.66L447,403.73v19.18l-12.92-7.53v2.31l11.36,6.63Z" transform="translate(-402.37 -384.13)" fill="#eeebe4"/></svg>