<svg xmlns="http://www.w3.org/2000/svg" width="57.82" height="56.5" viewBox="0 0 57.82 56.5"><path d="M289.85,422.05a10.87,10.87,0,0,0-10.57-2.79l-7.55-7.54,14-14a9.19,9.19,0,0,0,0-12.95l-.28-.28a1.18,1.18,0,0,0-.85-.35,1.16,1.16,0,0,0-.85.35l-19.63,19.63-19.64-19.63a1.16,1.16,0,0,0-.85-.35,1.18,1.18,0,0,0-.85.35l-.28.28a9.19,9.19,0,0,0,0,12.95l14,14L249,419.26a10.89,10.89,0,1,0,7.6,7.61l7.55-7.55,7.54,7.55a10.88,10.88,0,1,0,18.18-4.82Zm-5.25-35.59a7.19,7.19,0,0,1-.27,9.83l-14,14-4.78-4.78Zm-28.8,38.36-1.51,1.51a9.21,9.21,0,0,1,.6,2.23,8.88,8.88,0,1,1-15.07-5.09,8.79,8.79,0,0,1,6.28-2.6,9.23,9.23,0,0,1,1.18.08,8.93,8.93,0,0,1,2.24.6l1.5-1.5,6.91-6.92,4.78,4.78ZM288.43,436a8.89,8.89,0,0,1-14.47-9.7l-1.51-1.51-6.91-6.91-1.41-1.41-4.78-4.78-1.42-1.42-14-14a7.19,7.19,0,0,1-.27-9.83l19.06,19.06,1.42,1.42,4.77,4.78,1.42,1.41,6.91,6.92,1.5,1.5A9,9,0,0,1,281,421a9.23,9.23,0,0,1,1.18-.08,8.79,8.79,0,0,1,6.28,2.6A8.88,8.88,0,0,1,288.43,436Z" transform="translate(-235.22 -384.13)" fill="#eeebe4"/><path d="M246.09,425.2a4.55,4.55,0,1,0,4.55,4.55A4.55,4.55,0,0,0,246.09,425.2Zm0,7.09a2.55,2.55,0,1,1,2.55-2.54A2.54,2.54,0,0,1,246.09,432.29Z" transform="translate(-235.22 -384.13)" fill="#eeebe4"/><path d="M282.16,425.2a4.55,4.55,0,1,0,4.54,4.55A4.55,4.55,0,0,0,282.16,425.2Zm0,7.09a2.55,2.55,0,1,1,2.54-2.54A2.55,2.55,0,0,1,282.16,432.29Z" transform="translate(-235.22 -384.13)" fill="#eeebe4"/><circle cx="28.91" cy="27.45" r="1" fill="#eeebe4"/></svg>