<svg
 xmlns="http://www.w3.org/2000/svg"
 xmlns:xlink="http://www.w3.org/1999/xlink"
 width="22.5px" height="6.5px">
<path fill-rule="evenodd"  stroke="rgb(150, 153, 162)" stroke-width="1px" stroke-linecap="butt" stroke-linejoin="miter" fill="none"
 d="M3.000,0.500 C4.381,0.500 5.500,1.619 5.500,3.000 C5.500,4.380 4.381,5.500 3.000,5.500 C1.619,5.500 0.500,4.380 0.500,3.000 C0.500,1.619 1.619,0.500 3.000,0.500 Z"/>
<path fill-rule="evenodd"  stroke="rgb(150, 153, 162)" stroke-width="1px" stroke-linecap="butt" stroke-linejoin="miter" fill="none"
 d="M11.000,0.500 C12.381,0.500 13.500,1.619 13.500,3.000 C13.500,4.380 12.381,5.500 11.000,5.500 C9.619,5.500 8.500,4.380 8.500,3.000 C8.500,1.619 9.619,0.500 11.000,0.500 Z"/>
<path fill-rule="evenodd"  stroke="rgb(150, 153, 162)" stroke-width="1px" stroke-linecap="butt" stroke-linejoin="miter" fill="none"
 d="M19.000,0.500 C20.381,0.500 21.500,1.619 21.500,3.000 C21.500,4.380 20.381,5.500 19.000,5.500 C17.619,5.500 16.500,4.380 16.500,3.000 C16.500,1.619 17.619,0.500 19.000,0.500 Z"/>
</svg>