<svg xmlns="http://www.w3.org/2000/svg" xmlns:xlink="http://www.w3.org/1999/xlink" viewBox="0 0 1541 1496.92"><defs><clipPath id="a" transform="translate(-248 -253.99)"><ellipse cx="996.9" cy="1002.05" rx="746.1" ry="748.46" fill="none"/></clipPath><linearGradient id="b" x1="327.83" y1="914.72" x2="477.92" y2="915.08" gradientUnits="userSpaceOnUse"><stop offset="0" stop-color="#e2ab58"/><stop offset="0.16" stop-color="#f8e08d"/><stop offset="0.19" stop-color="#f2d886"/><stop offset="0.22" stop-color="#e2c174"/><stop offset="0.27" stop-color="#c79d56"/><stop offset="0.28" stop-color="#c0934e"/><stop offset="0.33" stop-color="#ac753a"/><stop offset="0.38" stop-color="#9a5928"/><stop offset="0.42" stop-color="#8e481c"/><stop offset="0.45" stop-color="#8a4218"/><stop offset="0.5" stop-color="#90491d"/><stop offset="0.56" stop-color="#a15e29"/><stop offset="0.65" stop-color="#be803e"/><stop offset="0.73" stop-color="#e2ab58"/><stop offset="0.84" stop-color="#edc673"/><stop offset="0.93" stop-color="#f5d986"/><stop offset="1" stop-color="#f8e08d"/></linearGradient><linearGradient id="c" x1="409.56" y1="663.87" x2="981.82" y2="665.25" xlink:href="#b"/><linearGradient id="d" x1="985.58" y1="367.11" x2="1121.05" y2="367.44" xlink:href="#b"/><linearGradient id="e" x1="983.47" y1="814.1" x2="1163.4" y2="814.53" xlink:href="#b"/></defs><path d="M803,991.91q16.32.51,32,.51,5.92-.25,19.17-.76t17.88-.51q27.79,0,42,10.31t14.21,29.67q0,31.11-33.52,42.37,19.6,3.3,30.11,14.55t10.5,28.72q0,25.31-18.41,39.15t-51,13.85q-6.48,0-14-.37t-16.94-.38q-15.36,0-31.42.38L803,1164l15.56-4.69a4.19,4.19,0,0,0,3.42-3.92c.08-3.37.15-7.14.19-11.32s.06-8.79.06-13.85v-102.6q0-6.45-.06-11.63c0-3.46-.11-6.58-.19-9.37a4.33,4.33,0,0,0-3-4.3l-15.68-4.93Zm44,78.94q7.8.12,15.86.12,18.63,0,28.14-9t9.51-26.25q0-18.09-9.76-26t-28.14-7.9c-2.18,0-4.58.06-7.18.19s-5.41.36-8.43.69Zm0,10.12v76.79a32.64,32.64,0,0,0,8.75,1.77c3.32.25,6.36.38,9.14.38q20.91,0,31.81-10.38t10.89-30.1q0-19.74-11-29.29T861,1080.59Q853.81,1080.59,847,1081Z" transform="translate(-248 -253.99)" fill="#fff"/><path d="M1037.52,989.25,1093.69,1144q3.16,8.73,5.76,11.83a15.35,15.35,0,0,0,7.4,4.61l11.89,3.55.25,5.44q-16.58-.39-30.74-.38-14.41,0-34,.38l-.5-5.44,12-3.55a9.66,9.66,0,0,0,3.61-2,4.58,4.58,0,0,0,1.07-3.35,22.92,22.92,0,0,0-1.32-6.64q-1.33-4.11-3.74-10.94l-11.89-33.91h-61l-13.29,33.78q-2.66,7.08-4.17,11.26a20.8,20.8,0,0,0-1.52,6.58,4.09,4.09,0,0,0,1.2,3.22,9.92,9.92,0,0,0,3.61,1.84l11.76,3.41.26,5.7q-18-.39-29.35-.38t-25.43.38l-.63-5.44,12.78-3.93a13.3,13.3,0,0,0,7.08-4.68,51.44,51.44,0,0,0,5.06-9.86l64.64-154.34ZM997.17,1092.1h52.12l-24.67-69.7Z" transform="translate(-248 -253.99)" fill="#fff"/><circle cx="748.46" cy="748.46" r="748.46" fill="#303134"/><g clip-path="url(#a)"><polygon points="1541 496.01 1102 254.01 991.96 461.7 1060.33 760.74 966.32 679.18 467.53 679.01 344 1161.01 1074 1489.01 1460.39 1173.01 1541 496.01" fill="#1e1f22"/></g><line x1="338.06" y1="1160.77" x2="467.7" y2="669.03" fill="none" stroke-miterlimit="10" stroke-width="22.35" stroke="url(#b)"/><line x1="409.58" y1="664.56" x2="981.79" y2="664.56" fill="none" stroke-miterlimit="10" stroke-width="22.35" stroke="url(#c)"/><line x1="1111.43" y1="257.75" x2="995.2" y2="476.8" fill="none" stroke-miterlimit="10" stroke-width="22.35" stroke="url(#d)"/><line x1="1151.67" y1="1160.77" x2="995.2" y2="467.86" fill="none" stroke-miterlimit="10" stroke-width="22.35" stroke="url(#e)"/><path d="M797.21,701.3V877.79H772.54V502.27h24.67v176.5H914.16V502.27h25.22V877.79H914.16V701.3Z" transform="translate(-248 -253.99)" fill="#fff"/><path d="M1007.5,594c0-54.72,25.21-95,82.07-95,57.94,0,83.15,40.24,83.15,95v192c0,54.71-25.21,95-83.15,95-56.86,0-82.07-40.24-82.07-95Zm24.67,193.66c0,40.77,16.1,70.81,57.4,70.81,41.85,0,58.48-30,58.48-70.81V592.4c0-40.77-16.63-70.82-58.48-70.82-41.3,0-57.4,30-57.4,70.82Z" transform="translate(-248 -253.99)" fill="#fff"/><path d="M851.4,1016.37c56.32,0,76.71,27.89,76.71,79.93v21.45c0,40.78-11.27,66-49.35,74,40.77,8,56.32,38.08,56.32,80.46V1305c0,54.18-24.67,86.9-82.07,86.9H772.54V1016.37Zm-12.34,165.76c44,0,64.37-11.8,64.37-59.55v-24.14c0-39.16-12.34-59.54-52.57-59.54H797.21v143.23Zm14,187.22c41.3,0,57.4-23.07,57.4-64.91v-33.8c0-48.81-22-66-66.52-66H797.21v164.69Z" transform="translate(-248 -253.99)" fill="#fff"/><path d="M1038.07,1308.73l-18.77,83.15H996.77l82.07-376.05h36l83.68,376.05H1173.8L1155,1308.73Zm3.76-21.46h109.44l-55.26-243Z" transform="translate(-248 -253.99)" fill="#fff"/></svg>