<?xml version="1.0" encoding="utf-8"?><svg viewBox="0 0 105.85 57.19" xmlns="http://www.w3.org/2000/svg" xmlns:xlink="http://www.w3.org/1999/xlink"><style>:root>svg{display:none}:root>svg:target{display:block}</style><svg viewBox="0 0 25.23 20.88" id="ic_all_link" xmlns="http://www.w3.org/2000/svg"><path d="M4.88 1.12v3.75H1.12V1.12h3.76M5.2 0H.8a.8.8 0 0 0-.8.81V5.2a.8.8 0 0 0 .8.8h4.4a.8.8 0 0 0 .8-.8V.81A.8.8 0 0 0 5.2 0zM4.88 16.01v3.76H1.12v-3.76h3.76m.32-1.12H.8a.8.8 0 0 0-.8.8v4.4a.8.8 0 0 0 .8.8h4.4a.8.8 0 0 0 .8-.8v-4.4a.8.8 0 0 0-.8-.8zM4.88 8.57v3.76H1.12V8.57h3.76m.32-1.12H.8a.8.8 0 0 0-.8.8v4.4a.8.8 0 0 0 .8.8h4.4a.8.8 0 0 0 .8-.8v-4.4a.8.8 0 0 0-.8-.8zM17.67 1.12H7.98a.56.56 0 0 1-.56-.56.57.57 0 0 1 .56-.56h9.69a.57.57 0 0 1 .56.56.56.56 0 0 1-.56.56zM24.67 3.56H7.98A.56.56 0 0 1 7.42 3a.57.57 0 0 1 .56-.56h16.69a.57.57 0 0 1 .56.56.56.56 0 0 1-.56.56zM14.67 6H7.98a.56.56 0 0 1-.56-.56.57.57 0 0 1 .56-.56h6.69a.57.57 0 0 1 .56.56.56.56 0 0 1-.56.56zM11.67 8.57H7.98a.56.56 0 0 1 0-1.12h3.69a.56.56 0 1 1 0 1.12zM20.67 11.01H7.98a.56.56 0 1 1 0-1.12h12.69a.56.56 0 0 1 0 1.12zM17.67 13.45H7.98a.56.56 0 1 1 0-1.12h9.69a.56.56 0 0 1 0 1.12zM14.67 16.01H7.98a.56.56 0 0 1 0-1.12h6.69a.56.56 0 0 1 0 1.12zM15.67 18.45H7.98a.56.56 0 1 1 0-1.12h7.69a.56.56 0 0 1 0 1.12zM22.67 20.87H7.98a.56.56 0 0 1 0-1.12h14.69a.56.56 0 1 1 0 1.12z"/></svg><svg viewBox="0 0 20.78 41.92" id="ic_arrow" xmlns="http://www.w3.org/2000/svg"><path d="M.65.11a.37.37 0 0 0-.5 0 .36.36 0 0 0-.08.5l13.39 20.35L.07 41.33a.36.36 0 0 0 .08.5.37.37 0 0 0 .5 0l20.13-20.87z"/></svg><svg viewBox="0 0 10.31 10.31" id="ic_close" xmlns="http://www.w3.org/2000/svg"><path d="M1 10.31a1 1 0 0 1-.71-.3 1 1 0 0 1 0-1.41L8.64.29a1 1 0 0 1 1.41 1.41l-8.31 8.31a1 1 0 0 1-.74.3zM1.7.29A1 1 0 0 0 .29 1.7l2.74 2.74 1.41-1.41zM8.64 10.01a1 1 0 0 0 1.41 0 1 1 0 0 0 0-1.41L7.27 5.87 5.86 7.28z"/></svg><svg viewBox="0 0 18.38 14.7" id="ic_email" xmlns="http://www.w3.org/2000/svg"><path d="M9.99 9.05a.64.64 0 0 1-.3.19h-.07a1.16 1.16 0 0 1-.18 0 1 1 0 0 1-.17 0h-.08a.64.64 0 0 1-.3-.19l-.79-.73-6.81 6.28a1.8 1.8 0 0 0 .57.1h14.72a1.8 1.8 0 0 0 .57-.1l-6.59-6.07zM.14 1.06a1.82 1.82 0 0 0-.16.74v11.11a1.86 1.86 0 0 0 .13.67l6.8-6.27zM17.38.2a1.67 1.67 0 0 0-.8-.2H1.8a1.57 1.57 0 0 0-.49.08l8.1 7.47zM18.32 1.37l-6.65 6.14 6.58 6.06a1.86 1.86 0 0 0 .13-.67V1.8a1.54 1.54 0 0 0-.06-.43z"/></svg><svg viewBox="0 0 25 25" id="ic_facebook" xmlns="http://www.w3.org/2000/svg"><path d="M21.16 0H3.79A3.79 3.79 0 0 0 0 3.79V21.2A3.8 3.8 0 0 0 3.79 25h5.09V14.66H5.26v-3.63h3.62v-2.9a4.71 4.71 0 0 1 5.08-5.08h2.9v3.61h-1.45c-1.61 0-2.18.33-2.18 1.45v2.9h3.63l-.7 3.65h-2.91v10.36h8a3.81 3.81 0 0 0 3.8-3.8V3.79A3.8 3.8 0 0 0 21.16 0z"/></svg><svg viewBox="0 0 90.3 49.35" id="ic_furniture_type1" xmlns="http://www.w3.org/2000/svg"><path d="M90.31 22.71a5 5 0 0 0-5-5H83.9V5.34A5.34 5.34 0 0 0 78.56 0h-66.8a5.35 5.35 0 0 0-5.35 5.34v12.37H5a5 5 0 0 0-5 5v24.21h2.18v2.42h9.68v-2.42h66.58v2.42h9.69v-2.42h2.18zM10.66 48.14H3.38v-1.22h7.28zm2.17-2.42H1.21v-23A3.79 3.79 0 0 1 5 18.93h4a3.8 3.8 0 0 1 3.8 3.79zm-3.8-28H7.62V5.34a4.15 4.15 0 0 1 4.14-4.14h32.79v23.36H14.04v-1.85a5 5 0 0 0-5.01-5zm67.24 28H14.04V32.31h62.23zm0-14.62H14.04v-5.33h62.23zm0-8.39v1.85H45.76V1.2h32.79a4.14 4.14 0 0 1 4.13 4.14v12.37h-1.41a5 5 0 0 0-5 5zm10.66 25.43h-7.29v-1.22h7.29zm2.17-2.42H77.44v-23a3.79 3.79 0 0 1 3.79-3.79h4a3.8 3.8 0 0 1 3.8 3.79z"/></svg><svg viewBox="0 0 90.3 49.35" id="ic_furniture_type2" xmlns="http://www.w3.org/2000/svg"><path d="M84.95 1.2a4.15 4.15 0 0 1 4.15 4.15V26.9H5.35a4.16 4.16 0 0 1-4.15-4.15V5.35A4.15 4.15 0 0 1 5.35 1.2h79.6m0-1.2H5.35A5.34 5.34 0 0 0 0 5.35v17.4a5.35 5.35 0 0 0 5.35 5.35h84.76a.2.2 0 0 0 .19-.19V5.35A5.35 5.35 0 0 0 84.95 0z"/><path d="M89.1 28.1v15.92a4.13 4.13 0 0 1-4.12 4.12H64.72a4.13 4.13 0 0 1-4.12-4.12V28.1h28.5m1-1.2H59.62a.22.22 0 0 0-.22.22v16.9a5.32 5.32 0 0 0 5.32 5.32h20.3a5.32 5.32 0 0 0 5.32-5.32v-16.9a.22.22 0 0 0-.22-.22zM29.7 1.01h1.2v26.38h-1.2z"/><path d="M59.4 1.01h1.2v26.38h-1.2z"/><path d="M.6 6.26h89.22v1.2H.6z"/></svg><svg viewBox="0 0 105.85 57.19" id="ic_furniture_type3" xmlns="http://www.w3.org/2000/svg"><path d="M105.86 21.71v-7.23H94.52v-.88a5.74 5.74 0 0 0-4.25-5.55c.11-.43.14-.71.15-.74l.08-.68h-2.24a3.91 3.91 0 0 0-2.19-2.95 3.07 3.07 0 0 0 .06-.53 3.15 3.15 0 1 0-6.3 0 3.15 3.15 0 0 0-2.55 3.09 2.19 2.19 0 0 0 0 .36h-2.42l.07.67a5.24 5.24 0 0 0 .1.54H5.73A5.76 5.76 0 0 0 .02 13.6v43.59h7.39v-1.11a6.05 6.05 0 0 1 6.05-6H36.1v7.16h4.2v-7.16h40.81a6.05 6.05 0 0 1 6.05 6v1.11h7.2a.18.18 0 0 0 .18-.19V22.92h7.14v34.27h4.2V21.71zm-20.2 1.21l-14.37 9.87-14.83-9.87-1.82-1.21-9-6h50.57l-1.65 1.13-1.2.83-5.9 4.06zm-48.37-1.21v-6h6.13l9 6H37.29zM85.64 4.82a2.65 2.65 0 0 1 1.37 1.81h-5.22a2.76 2.76 0 0 1 .16-.51 2.36 2.36 0 0 1 .3-.51 3 3 0 0 1 .52-.54 3.87 3.87 0 0 1 .43-.27 2.52 2.52 0 0 1 1.16-.29h.05a2.59 2.59 0 0 1 1.23.31zm-2.62-3.61a1.94 1.94 0 0 1 1.94 1.94v.19a3.42 3.42 0 0 0-2.47.51 3.11 3.11 0 0 0-1.39-.67 1.94 1.94 0 0 1 1.92-1.97zm-2.91 3.15h.36a1.94 1.94 0 0 1 1.06.31 3.67 3.67 0 0 0-.58.87 3.9 3.9 0 0 0-.32 1.12h-2.06a2.2 2.2 0 0 1 0-.36 1.94 1.94 0 0 1 1.5-1.94zm8.69 3.48h.31a9.43 9.43 0 0 1-.39 1.18 8.83 8.83 0 0 1-.59 1.2 6 6 0 0 1-5.45 3 5.87 5.87 0 0 1-5.37-3 8.75 8.75 0 0 1-.6-1.24 12 12 0 0 1-.38-1.2zM1.24 13.6A4.56 4.56 0 0 1 5.8 9.04h69.62a10.21 10.21 0 0 0 .83 1.82 7.1 7.1 0 0 0 6.43 3.62 7.21 7.21 0 0 0 6.48-3.61 9.56 9.56 0 0 0 .79-1.67 4.56 4.56 0 0 1 3.41 4.4v.88H36.08v20.26H1.2zm12.24 35.23a7.26 7.26 0 0 0-7.25 7.16h-5V35.94h34.88v12.89zm25.63 7.15h-1.78V22.92h1.78V55.94zm54.25 0h-5a7.26 7.26 0 0 0-7.25-7.16H40.28V35.94h53zm0-21.25h-53V22.92h14l17 11.33 16.49-11.33h5.53zm1.2-13h-5l3.77-2.59 1.2-.83 3.78-2.6h6.35v6H94.52zM104.69 56h-1.78V22.92h1.78z"/></svg><svg viewBox="0 0 58.3 49.35" id="ic_furniture_type4" xmlns="http://www.w3.org/2000/svg"><path d="M53.3 17.71h-1.41V5.34A5.35 5.35 0 0 0 46.55 0H11.76a5.35 5.35 0 0 0-5.35 5.34v12.37H5a5 5 0 0 0-5 5v24.22h2.18v2.42h9.68v-2.42h34.58v2.42h9.69v-2.42h2.17V22.71a5 5 0 0 0-5-5zM10.66 48.15H3.38v-1.22h7.28zm2.17-2.43H1.21v-23A3.79 3.79 0 0 1 5 18.93h4a3.8 3.8 0 0 1 3.8 3.79zm31.44 0H14.04V32.31h30.23zm0-14.62H14.04v-5.33h30.23zm0-8.39v1.85H14.04v-1.85a5 5 0 0 0-5-5H7.63V5.34a4.14 4.14 0 0 1 4.14-4.13h34.79a4.13 4.13 0 0 1 4.13 4.13v12.37h-1.41a5 5 0 0 0-5.01 5zm10.66 25.44h-7.29v-1.22h7.29zm2.16-2.43H45.44v-23a3.79 3.79 0 0 1 3.79-3.79h4a3.79 3.79 0 0 1 3.79 3.79z"/></svg><svg viewBox="0 0 27.5 49.35" id="ic_furniture_type5" xmlns="http://www.w3.org/2000/svg"><path d="M26.99 28.02c-4.53-16-3.1-28-3.1-28H3.44S4.9 12.17.28 28.27a2.46 2.46 0 0 0-.06.36A3.52 3.52 0 0 0 0 29.8v2.52l.81 17.06h3.55l.76-17.06h1l.69 14.48h3.55L11 32.32h5.56l.64 14.48h3.52l.69-14.48h1l.76 17.06h3.52l.81-17.06V29.8a3.3 3.3 0 0 0-.51-1.78zM4.75 1.2h17.83a82.2 82.2 0 0 0 2.78 25.46 3.29 3.29 0 0 0-1.26-.25H3.36a3.36 3.36 0 0 0-1.45.34A82.36 82.36 0 0 0 4.75 1.2zm-1.56 47H1.96L1.2 32.34h2.69zm6-2.58H7.96l-.6-13.32h2.45zm10.35 0h-1.18l-.58-13.28h2.45zM1.2 31.14v-1.32a2.17 2.17 0 0 1 2.17-2.17h20.76a2.17 2.17 0 0 1 2.17 2.17v1.32zM25.55 48.2h-1.19l-.71-15.86h2.69z"/><path d="M8.25 7.11a.6.6 0 1 0-.6-.6.6.6 0 0 0 .6.6zM13.75 7.11a.6.6 0 1 0-.6-.6.6.6 0 0 0 .6.6zM19.25 7.11a.6.6 0 1 0-.6-.6.6.6 0 0 0 .6.6zM8.25 14.11a.6.6 0 1 0-.6-.6.6.6 0 0 0 .6.6zM13.75 14.11a.6.6 0 1 0-.6-.6.6.6 0 0 0 .6.6zM19.25 14.11a.6.6 0 1 0-.6-.6.6.6 0 0 0 .6.6zM8.25 21.11a.6.6 0 1 0-.6-.6.6.6 0 0 0 .6.6zM13.75 21.11a.6.6 0 1 0-.6-.6.6.6 0 0 0 .6.6zM19.25 21.11a.6.6 0 1 0-.6-.6.6.6 0 0 0 .6.6z"/></svg><svg viewBox="0 0 27.5 49.35" id="ic_furniture_type6" xmlns="http://www.w3.org/2000/svg"><path d="M24.13 26.4h-.15V0H3.53v26.4h-.17a3.37 3.37 0 0 0-3.37 3.37v19.58h3.53V32.29h1.47v14.48h3.53V32.29h10.44v14.48h3.53V32.29h1.48v17.06h3.52V29.77a3.37 3.37 0 0 0-3.36-3.37zm-19.4-3.38h18.05v3.38H4.73zm6.41-1.2V1.2h5.22v20.62zm11.64 0h-5.22V1.2h5.22zM9.94 1.2v20.62H4.73V1.2zM2.36 48.15H1.23V32.29h1.13zm5-2.58H6.23V32.29h1.13zm14 0h-1.13V32.29h1.13zm5 2.58h-1.12V32.29h1.12zm-2.32-17.06H1.2v-1.32a2.17 2.17 0 0 1 2.17-2.17h20.76a2.17 2.17 0 0 1 2.17 2.17v1.32z"/></svg><svg viewBox="0 0 75.07 49.35" id="ic_furniture_type7" xmlns="http://www.w3.org/2000/svg"><path d="M69.66 0H5.39A5.39 5.39 0 0 0 0 5.39v41.53h2v2.42h7.17v-2.42h56.72v2.42h7.17v-2.42h2V5.39A5.39 5.39 0 0 0 69.66 0zM1.2 28.1v-2.51a3 3 0 0 1 3-2.95h1l.76 4.26.21 1.2.43 2.41.21 1.21.54 3h-3.2a3 3 0 0 1-3-3v-3.71zm32.87-6.64H7.36v-8.71a3 3 0 0 1 2.95-2.95h20.81a3 3 0 0 1 3 2.95zM7.36 22.67h56.58l-17.08 4.18-.32.08-4.06 1-.85.21-9.9 2.37-4.94 1.21-12.43 3-5 1.21h-.63l-.22-1.21-.54-3-.21-1.21-.43-2.41-.22-1.2-.08-.48-.67-3.78zm59.9-1.21H40.55v-8.71a3 3 0 0 1 3-2.95h20.76a3 3 0 0 1 3 2.95zM7.97 48.14H3.2v-1.22h4.77zm63.89 0h-4.77v-1.22h4.77zm2-2.42H1.2v-11a4.16 4.16 0 0 0 3 1.23h3.37l.18 1a.6.6 0 0 0 .59.5.39.39 0 0 0 .15 0l6.08-1.48h56.39a4.16 4.16 0 0 0 2.95-1.23zm0-15.21v1.3a3 3 0 0 1-2.95 3H19.46l12.43-3 4.94-1.21 9.9-2.5.28-.07 4.63-1.13.32-.08 15.31-3.74 1.21-.3.57-.14h1.87a3 3 0 0 1 2.95 2.95v4.92zm-2.95-9.05h-2.44v-8.71a4.16 4.16 0 0 0-4.16-4.15H43.5a4.16 4.16 0 0 0-4.16 4.15v8.71h-4.06v-8.71a4.16 4.16 0 0 0-4.16-4.15H10.31a4.16 4.16 0 0 0-4.16 4.15v8.71h-2a4.12 4.12 0 0 0-3 1.25V5.39A4.2 4.2 0 0 1 5.34 1.2h64.27a4.2 4.2 0 0 1 4.2 4.19v17.29a4.12 4.12 0 0 0-2.9-1.22z"/></svg><svg viewBox="0 0 22.55 20.88" id="ic_image" xmlns="http://www.w3.org/2000/svg"><path d="M19.93 3.81H17.2v-.7A3.1 3.1 0 0 0 14.1 0H8.45a3.11 3.11 0 0 0-3.11 3.11v.7H2.62A2.62 2.62 0 0 0 0 6.43v11.84a2.62 2.62 0 0 0 2.62 2.6h17.31a2.62 2.62 0 0 0 2.62-2.62V6.43a2.63 2.63 0 0 0-2.62-2.62zm1.5 14.46a1.5 1.5 0 0 1-1.5 1.5H2.62a1.5 1.5 0 0 1-1.5-1.5V6.43a1.5 1.5 0 0 1 1.5-1.5h3.84V3.11a2 2 0 0 1 2-2h5.69a2 2 0 0 1 2 2v1.82h3.88a1.51 1.51 0 0 1 1.5 1.5z"/><path d="M11.27 6.87a5.51 5.51 0 1 0 5.51 5.51 5.51 5.51 0 0 0-5.51-5.51zm0 9.9a4.39 4.39 0 1 1 4.39-4.39 4.4 4.4 0 0 1-4.39 4.36zM19.56 5.81a1 1 0 1 0 1 1 1 1 0 0 0-1-1z"/><path d="M11.27 8.87a3.49 3.49 0 1 0 3.49 3.49 3.49 3.49 0 0 0-3.49-3.49zm0 5.86a2.37 2.37 0 1 1 2.37-2.37 2.37 2.37 0 0 1-2.37 2.36zM5.25 16.77H3.56a.56.56 0 1 0 0 1.12h1.69a.56.56 0 0 0 0-1.12zM8.63 4.87h5.28a1.21 1.21 0 0 0 1.24-1.2V3.2A1.21 1.21 0 0 0 13.94 2H8.66a1.21 1.21 0 0 0-1.21 1.2v.47a1.21 1.21 0 0 0 1.18 1.2zM8.42 3.2a.21.21 0 0 1 .21-.2h5.28a.2.2 0 0 1 .21.2v.47a.2.2 0 0 1-.21.2H8.63a.21.21 0 0 1-.21-.2z"/></svg><svg viewBox="0 0 25 25" id="ic_instagram" xmlns="http://www.w3.org/2000/svg"><ellipse cx="12.5" cy="12.5" rx="4.08" ry="4.04"/><path d="M18.71 0H6.3A6.28 6.28 0 0 0 0 6.23v12.54A6.29 6.29 0 0 0 6.3 25h12.41A6.28 6.28 0 0 0 25 18.77V6.23A6.28 6.28 0 0 0 18.71 0zm-6.2 19.66a7.16 7.16 0 1 1 7.24-7.16 7.2 7.2 0 0 1-7.24 7.16zm7.48-13.28a1.82 1.82 0 1 1 1.85-1.82 1.82 1.82 0 0 1-1.85 1.82z"/></svg><svg viewBox="0 0 15.21 20" id="ic_location" xmlns="http://www.w3.org/2000/svg"><path d="M7.63 0A7.61 7.61 0 0 0 .02 7.61c0 3.76 3.56 6.92 4.14 7.5A14.23 14.23 0 0 1 7.63 20a14 14 0 0 1 3.47-4.89c.58-.58 4.13-3.74 4.13-7.5A7.61 7.61 0 0 0 7.63 0zm0 11.26a3.66 3.66 0 1 1 3.66-3.66 3.66 3.66 0 0 1-3.66 3.66z"/><path d="M7.63 5.44A2.16 2.16 0 1 0 9.79 7.6a2.16 2.16 0 0 0-2.16-2.16z"/></svg><svg viewBox="0 0 56.51 56.5" id="ic_materials" xmlns="http://www.w3.org/2000/svg"><rect x="172.73" y="407.14" width="35.22" height="2" rx="1" transform="rotate(45 575.086 25.528)"/><rect x="153.05" y="420.9" width="47.44" height="2" rx=".97" transform="rotate(45 561.525 39.291)"/><rect x="188.92" y="400.33" width="16.03" height="2" rx=".92" transform="rotate(45 581.685 18.722)"/><rect x="156.23" y="413.76" width="54.59" height="2" rx="1" transform="rotate(45 568.283 32.15)"/><rect x="155.99" y="428.03" width="27.18" height="2" rx="1" transform="rotate(45 554.335 46.413)"/><rect x="157.76" y="435.06" width="9.69" height="2" rx="1" transform="rotate(45 547.35 53.45)"/><path d="M0 13.42a1.66 1.66 0 0 1 0 3.31v3.86a1.66 1.66 0 0 1 0 3.31v3.31a1.65 1.65 0 0 1 0 3.3v3.86a1.66 1.66 0 0 1 0 3.31v3.86a1.66 1.66 0 0 1 0 3.31v4.42a1.66 1.66 0 0 1 0 3.31v3.92h2v-2.52a3.65 3.65 0 0 0 0-6.11v-1.62a3.65 3.65 0 0 0 0-6.11v-1.06a3.65 3.65 0 0 0 0-6.11v-1.05a3.66 3.66 0 0 0 0-6.12v-.5a3.65 3.65 0 0 0 0-6.11v-1.06a3.65 3.65 0 0 0 0-6.11V9.41H0zM47.08 13.42a1.66 1.66 0 0 0 0 3.31v3.86a1.66 1.66 0 0 0 0 3.31v3.31a1.65 1.65 0 0 0 0 3.3v3.86a1.66 1.66 0 0 0 0 3.31v3.86a1.66 1.66 0 0 0 0 3.31v4.42a1.66 1.66 0 0 0 0 3.31v3.92h-2v-2.52a3.65 3.65 0 0 1 0-6.11v-1.62a3.65 3.65 0 0 1 0-6.11v-1.06a3.65 3.65 0 0 1 0-6.11v-1.05a3.66 3.66 0 0 1 0-6.12v-.5a3.65 3.65 0 0 1 0-6.11v-1.06a3.65 3.65 0 0 1 0-6.11V9.41h2z"/><path d="M43.07 9.41a1.66 1.66 0 0 1-3.31 0H35.9a1.65 1.65 0 1 1-3.3 0h-3.31a1.66 1.66 0 0 1-3.31 0h-3.84a1.66 1.66 0 0 1-3.31 0h-3.86a1.66 1.66 0 0 1-3.31 0H7.24a1.66 1.66 0 0 1-3.31 0H.02v2h2.51a3.66 3.66 0 0 0 6.12 0h1.61a3.66 3.66 0 0 0 6.12 0h1.05a3.65 3.65 0 0 0 6.11 0h1.06a3.65 3.65 0 0 0 6.11 0h.5a3.66 3.66 0 0 0 6.12 0h1.05a3.65 3.65 0 0 0 6.11 0h2.61v-2zM43.07 56.5a1.66 1.66 0 1 0-3.31 0H35.9a1.65 1.65 0 1 0-3.3 0h-3.31a1.66 1.66 0 1 0-3.31 0h-3.84a1.66 1.66 0 1 0-3.31 0h-3.86a1.66 1.66 0 1 0-3.31 0H7.24a1.66 1.66 0 1 0-3.31 0H.02v-2h2.51a3.65 3.65 0 0 1 6.12 0h1.61a3.65 3.65 0 0 1 6.12 0h1.05a3.64 3.64 0 0 1 6.11 0h1.06a3.64 3.64 0 0 1 6.11 0h.5a3.65 3.65 0 0 1 6.12 0h1.05a3.64 3.64 0 0 1 6.11 0h2.61v2z"/><path d="M54.5 0h-2a1.66 1.66 0 0 1-3.31 0h-3.86a1.66 1.66 0 0 1-3.31 0h-3.3a1.66 1.66 0 0 1-3.31 0h-3.87a1.66 1.66 0 0 1-3.31 0h-3.86a1.66 1.66 0 0 1-3.31 0h-4.42a1.66 1.66 0 0 1-3.31 0H9.41v4a1.65 1.65 0 0 1 0 3.3h3.23a3.62 3.62 0 0 0-1.26-4.7v-.61h.52a3.65 3.65 0 0 0 6.11 0h1.62a3.65 3.65 0 0 0 6.11 0h1.06a3.65 3.65 0 0 0 6.11 0h1a3.66 3.66 0 0 0 6.12 0h.5a3.65 3.65 0 0 0 6.11 0h1.06a3.65 3.65 0 0 0 6.11 0h.61v.61a3.65 3.65 0 0 0 0 6.11v1a3.66 3.66 0 0 0 0 6.12v.5a3.65 3.65 0 0 0 0 6.11v1.06a3.65 3.65 0 0 0 0 6.11v1.05a3.66 3.66 0 0 0 0 6.12v1.61a3.66 3.66 0 0 0 0 6.12v.51h-.61a3.64 3.64 0 0 0-4.67-1.15v3.25a1.66 1.66 0 0 1 3.31 0h4V43.2a1.65 1.65 0 1 1 0-3.3v-4.43a1.65 1.65 0 0 1 0-3.3v-3.9a1.66 1.66 0 0 1 0-3.31V21.1a1.66 1.66 0 0 1 0-3.31v-3.31a1.65 1.65 0 1 1 0-3.3V7.32a1.66 1.66 0 0 1 0-3.31v-4z"/></svg><svg viewBox="0 0 28 20.88" id="ic_measuring" xmlns="http://www.w3.org/2000/svg"><path d="M9.59 10.16c2.32 0 4.21-1.42 4.21-3.17s-1.84-3.12-4.21-3.12-4.21 1.42-4.21 3.16 1.89 3.13 4.21 3.13zm0-5.21c1.69 0 3.09.94 3.09 2S11.26 9 9.59 9s-3.08-.94-3.08-2.05 1.41-2 3.08-2z"/><path d="M27.44 12.87h-8.31V6.99c0-3.85-4.28-7-9.57-7S0 3.13 0 6.99v6.88c0 3.55 3.63 6.47 8.3 6.92h.1c.39 0 .78.06 1.18.06h17.86a.56.56 0 0 0 .56-.56v-6.88a.56.56 0 0 0-.56-.54zM9.59 1.14c4.64 0 8.44 2.62 8.44 5.85s-3.77 5.88-8.44 5.88-8.44-2.63-8.44-5.86 3.81-5.87 8.44-5.87zm8.44 9.13v2.6h-3.26a8.46 8.46 0 0 0 3.19-2.6zm8.84 9.49h-1.12v-2.84a.57.57 0 1 0-1.13 0v2.85h-2.25v-1.55a.56.56 0 1 0-1.12 0v1.55h-2.29v-1.55a.56.56 0 1 0-1.12 0v1.55h-2.25v-2.85a.57.57 0 1 0-1.13 0v2.85h-2.15v-1.55a.57.57 0 0 0-1.13 0v1.55H8.96v-1.55a.56.56 0 1 0-1.12 0v1.41c-3.8-.56-6.66-2.91-6.66-5.73v-3.63c1.61 2.21 4.78 3.7 8.44 3.7h17.25z"/></svg><svg viewBox="0 0 20.3 20.78" id="ic_phone" xmlns="http://www.w3.org/2000/svg"><path d="M18.37 16.99l-4-3.75a1.09 1.09 0 0 0-.63-.27 1.06 1.06 0 0 0-.72.24l-.94.9a2.17 2.17 0 0 1-2.72-.35l-2.75-3c-.76-1-.76-1.85-.16-2.52.25-.22.87-.9 1.11-1.12a1 1 0 0 0 .33-.69 1 1 0 0 0-.24-.71L4.27 1.2A1 1 0 0 0 3.5.79a1 1 0 0 0-.84.36l-.06.08c-.84 1-2.63 2.43-2.6 4.81.06 4.89 8.88 14.46 13.17 14.73 1.33.09 2.63-.23 5.11-2.23a1 1 0 0 0 .09-1.55zM20.27 10.46a.76.76 0 0 1-.66.54.75.75 0 0 1-.81-.68 10 10 0 0 0-7.24-8.79h-.17a.74.74 0 0 1-.52-.94.76.76 0 0 1 .92-.53l.19.06a11.52 11.52 0 0 1 8.31 10.1.8.8 0 0 1-.02.24z"/><path d="M16.37 10.14a.78.78 0 0 1-.58.53.76.76 0 0 1-.88-.6 6.23 6.23 0 0 0-3.79-4.64.751.751 0 0 1 .57-1.39 7.73 7.73 0 0 1 4.68 5.75.69.69 0 0 1 0 .35z"/></svg><svg viewBox="0 0 49.34 49.35" id="ic_portfolio_cat1" xmlns="http://www.w3.org/2000/svg"><path d="M18 1.2A3.8 3.8 0 0 1 21.8 5v16.8H5A3.8 3.8 0 0 1 1.2 18V5A3.8 3.8 0 0 1 5 1.2h13M18 0H5a5 5 0 0 0-5 5v13a5 5 0 0 0 5 5h18V5a5 5 0 0 0-5-5zM44.34 1.2a3.8 3.8 0 0 1 3.8 3.8v13a3.8 3.8 0 0 1-3.8 3.8h-16.8V5a3.8 3.8 0 0 1 3.8-3.8h13m0-1.2h-13a5 5 0 0 0-5 5v18h18a5 5 0 0 0 5-5V5a5 5 0 0 0-5-5zM21.8 27.54v16.8a3.8 3.8 0 0 1-3.8 3.8H5a3.8 3.8 0 0 1-3.8-3.8v-13a3.8 3.8 0 0 1 3.8-3.8h16.8m1.2-1.2H5a5 5 0 0 0-5 5v13a5 5 0 0 0 5 5h13a5 5 0 0 0 5-5v-18zM44.34 27.54a3.8 3.8 0 0 1 3.8 3.8v13a3.8 3.8 0 0 1-3.8 3.8h-13a3.8 3.8 0 0 1-3.8-3.8v-16.8h16.8m0-1.2h-18v18a5 5 0 0 0 5 5h13a5 5 0 0 0 5-5v-13a5 5 0 0 0-5-5z"/></svg><svg viewBox="0 0 90.3 49.35" id="ic_portfolio_cat2" xmlns="http://www.w3.org/2000/svg"><path d="M90.31 22.71a5 5 0 0 0-5-5H83.9V5.34A5.34 5.34 0 0 0 78.56 0h-66.8a5.35 5.35 0 0 0-5.35 5.34v12.37H5a5 5 0 0 0-5 5v24.21h2.18v2.42h9.68v-2.42h66.58v2.42h9.69v-2.42h2.18zM10.66 48.14H3.38v-1.22h7.28zm2.17-2.42H1.21v-23A3.79 3.79 0 0 1 5 18.93h4a3.8 3.8 0 0 1 3.8 3.79zm-3.8-28H7.62V5.34a4.15 4.15 0 0 1 4.14-4.14h32.79v23.36H14.04v-1.85a5 5 0 0 0-5.01-5zm67.24 28H14.04V32.31h62.23zm0-14.62H14.04v-5.33h62.23zm0-8.39v1.85H45.76V1.2h32.79a4.14 4.14 0 0 1 4.13 4.14v12.37h-1.41a5 5 0 0 0-5 5zm10.66 25.43h-7.29v-1.22h7.29zm2.17-2.42H77.44v-23a3.79 3.79 0 0 1 3.79-3.79h4a3.8 3.8 0 0 1 3.8 3.79z"/></svg><svg viewBox="0 0 58.3 49.35" id="ic_portfolio_cat3" xmlns="http://www.w3.org/2000/svg"><path d="M53.3 17.71h-1.41V5.34A5.35 5.35 0 0 0 46.55 0H11.76a5.35 5.35 0 0 0-5.35 5.34v12.37H5a5 5 0 0 0-5 5v24.22h2.18v2.42h9.68v-2.42h34.58v2.42h9.69v-2.42h2.17V22.71a5 5 0 0 0-5-5zM10.66 48.15H3.38v-1.22h7.28zm2.17-2.43H1.21v-23A3.79 3.79 0 0 1 5 18.93h4a3.8 3.8 0 0 1 3.8 3.79zm31.44 0H14.04V32.31h30.23zm0-14.62H14.04v-5.33h30.23zm0-8.39v1.85H14.04v-1.85a5 5 0 0 0-5-5H7.63V5.34a4.14 4.14 0 0 1 4.14-4.13h34.79a4.13 4.13 0 0 1 4.13 4.13v12.37h-1.41a5 5 0 0 0-5.01 5zm10.66 25.44h-7.29v-1.22h7.29zm2.16-2.43H45.44v-23a3.79 3.79 0 0 1 3.79-3.79h4a3.79 3.79 0 0 1 3.79 3.79z"/></svg><svg viewBox="0 0 58.3 49.35" id="ic_portfolio_cat4" xmlns="http://www.w3.org/2000/svg"><path d="M54.52 0H3.79A3.79 3.79 0 0 0 0 3.78v5.35a3.79 3.79 0 0 0 3.12 3.72v34.07h3.61v2.42h8v-2.42h29v2.42h8v-2.42h3.6V12.85a3.78 3.78 0 0 0 3.08-3.72V3.78A3.78 3.78 0 0 0 54.52 0zM13.44 48.14H7.89v-1.22h5.55zm37 0h-5.58v-1.22h5.56zm1.2-2.42H4.28v-32.8h49.74v32.8zm5.48-36.59a2.58 2.58 0 0 1-2.46 2.58h-51a2.59 2.59 0 0 1-2.47-2.58V3.78A2.59 2.59 0 0 1 3.78 1.2h50.74a2.59 2.59 0 0 1 2.58 2.58z"/><path d="M10.66 21.72a.6.6 0 0 0 0 1.2.6.6 0 1 0 0-1.2zM10.66 28.72a.6.6 0 0 0 0 1.2.6.6 0 1 0 0-1.2zM10.66 35.72a.6.6 0 1 0 0 1.2.6.6 0 1 0 0-1.2zM19.91 21.72a.6.6 0 1 0 .6.6.6.6 0 0 0-.6-.6zM19.91 28.72a.6.6 0 1 0 .6.6.6.6 0 0 0-.6-.6zM19.91 35.72a.6.6 0 1 0 .6.6.6.6 0 0 0-.6-.6zM29.12 21.72a.6.6 0 0 0 0 1.2.6.6 0 1 0 0-1.2zM29.12 28.72a.6.6 0 0 0 0 1.2.6.6 0 1 0 0-1.2zM29.12 35.72a.6.6 0 1 0 0 1.2.6.6 0 1 0 0-1.2zM38.4 21.72a.6.6 0 1 0 .6.6.6.6 0 0 0-.6-.6zM38.4 28.72a.6.6 0 1 0 .6.6.6.6 0 0 0-.6-.6zM38.4 35.72a.6.6 0 1 0 .6.6.6.6 0 0 0-.6-.6zM47.64 21.72a.6.6 0 1 0 .6.6.6.6 0 0 0-.6-.6zM47.64 28.72a.6.6 0 1 0 .6.6.6.6 0 0 0-.6-.6zM47.64 35.72a.6.6 0 1 0 .6.6.6.6 0 0 0-.6-.6z"/></svg><svg viewBox="0 0 27.5 49.35" id="ic_portfolio_cat5" xmlns="http://www.w3.org/2000/svg"><path d="M26.99 28.02c-4.53-16-3.1-28-3.1-28H3.44S4.9 12.17.28 28.27a2.46 2.46 0 0 0-.06.36A3.52 3.52 0 0 0 0 29.8v2.52l.81 17.06h3.55l.76-17.06h1l.69 14.48h3.55L11 32.32h5.56l.64 14.48h3.52l.69-14.48h1l.76 17.06h3.52l.81-17.06V29.8a3.3 3.3 0 0 0-.51-1.78zM4.75 1.2h17.83a82.2 82.2 0 0 0 2.78 25.46 3.29 3.29 0 0 0-1.26-.25H3.36a3.36 3.36 0 0 0-1.45.34A82.36 82.36 0 0 0 4.75 1.2zm-1.56 47H1.96L1.2 32.34h2.69zm6-2.58H7.96l-.6-13.32h2.45zm10.35 0h-1.18l-.58-13.28h2.45zM1.2 31.14v-1.32a2.17 2.17 0 0 1 2.17-2.17h20.76a2.17 2.17 0 0 1 2.17 2.17v1.32zM25.55 48.2h-1.19l-.71-15.86h2.69z"/><path d="M8.25 7.11a.6.6 0 1 0-.6-.6.6.6 0 0 0 .6.6zM13.75 7.11a.6.6 0 1 0-.6-.6.6.6 0 0 0 .6.6zM19.25 7.11a.6.6 0 1 0-.6-.6.6.6 0 0 0 .6.6zM8.25 14.11a.6.6 0 1 0-.6-.6.6.6 0 0 0 .6.6zM13.75 14.11a.6.6 0 1 0-.6-.6.6.6 0 0 0 .6.6zM19.25 14.11a.6.6 0 1 0-.6-.6.6.6 0 0 0 .6.6zM8.25 21.11a.6.6 0 1 0-.6-.6.6.6 0 0 0 .6.6zM13.75 21.11a.6.6 0 1 0-.6-.6.6.6 0 0 0 .6.6zM19.25 21.11a.6.6 0 1 0-.6-.6.6.6 0 0 0 .6.6z"/></svg><svg viewBox="0 0 20.86 20.86" id="ic_search" xmlns="http://www.w3.org/2000/svg"><circle cx="12.22" cy="8.64" r="7.89" fill="none" stroke="currentColor" stroke-miterlimit="10" stroke-width="1.5"/><path d="M12.92 3.08a.75.75 0 0 0-.75-.74 6.34 6.34 0 0 0-6.26 6.32.73.73 0 0 0 .75.73.77.77 0 0 0 .75-.77 4.83 4.83 0 0 1 4.78-4.82.75.75 0 0 0 .73-.72z" fill="currentColor"/><path fill="none" stroke="currentColor" stroke-linecap="round" stroke-miterlimit="10" stroke-width="1.5" d="M6.64 14.21l-5.89 5.9"/></svg><svg viewBox="0 0 34 20.38" id="ic_vkontakte" xmlns="http://www.w3.org/2000/svg"><path d="M18.15 20.35c1.14 0 1.14-1.63 1.14-2.27a2.43 2.43 0 0 1 2.26-2.26c1.13 0 3.07 1.94 4.53 3.4 1.13 1.13 1.13 1.13 2.26 1.13h3.4A2.3 2.3 0 0 0 34 18.08c0-.7-.78-1.9-3.4-4.52-2.26-2.27-3.42-1.1 0-5.66 2.09-2.78 3.61-5.3 3.35-6S27.9.11 27.21 1.14a42.45 42.45 0 0 0-3.4 5.66c-1.13 2.26-1.24 3.39-2.26 3.39S20.42 8 20.42 6.8c0-3.75.54-6.39-1.13-6.79h-3.4a6.62 6.62 0 0 0-3.4 1.13s-1.4 1.09-1.13 1.13 2.27-.47 2.27 1.13v2.27s0 4.52-1.14 4.52S9.1 5.67 6.84 2.27C5.95.94 5.71 1.14 4.57 1.14H1.18C.05 1.14-.1 1.86.05 2.22c2.26 5.66 3.89 9.21 8.19 13.69 3.94 4.11 6.58 4.32 8.78 4.42.57.02 0 .02 1.13.02z"/></svg><svg viewBox="0 0 25.25 20.88" id="ic_wallet" xmlns="http://www.w3.org/2000/svg"><path d="M22.19 0H3.07A3.07 3.07 0 0 0 0 3.07v14.8a3.06 3.06 0 0 0 3.07 3h19.12a3.06 3.06 0 0 0 3.06-3V3.07A3.07 3.07 0 0 0 22.19 0zm-7.82 19.77H3.07a2 2 0 0 1-1.95-1.9V3.07a2 2 0 0 1 1.95-2h16.12a2 2 0 0 1 1.94 2v4h-5.74a3.38 3.38 0 0 0 0 6.75h5.74v4a1.94 1.94 0 0 1-1.94 1.95zm6.76-7.07h-5.74a2.26 2.26 0 0 1 0-4.51h5.74zm3 5.12a1.94 1.94 0 0 1-1.94 1.95h-.65a3 3 0 0 0 .71-1.95V3.07a3.07 3.07 0 0 0-.71-2h.65a2 2 0 0 1 1.94 2z"/><path d="M13.93 10.45a1.46 1.46 0 1 0 1.45-1.46 1.46 1.46 0 0 0-1.45 1.46zm1.45-.34a.34.34 0 0 1 .34.34.34.34 0 1 1-.67 0 .34.34 0 0 1 .36-.34z"/></svg><svg viewBox="0 0 20.74 20.74" id="ic_whatsapp" xmlns="http://www.w3.org/2000/svg"><path d="M10.54-.04A10.14 10.14 0 0 0 .36 10.06a10 10 0 0 0 1.46 5.22L-.02 20.7l5.66-1.74a10.13 10.13 0 1 0 4.9-19zm5.8 14a2.86 2.86 0 0 1-1.91 1.33c-.51.05-.51.42-3.39-.7a11.6 11.6 0 0 1-4.83-4.24 5.46 5.46 0 0 1-1.15-2.9 3.13 3.13 0 0 1 1-2.34 1 1 0 0 1 .75-.35h.52c.17 0 .42-.07.66.49s.8 1.94.87 2.08a.5.5 0 0 1 0 .49 1.72 1.72 0 0 1-.28.47c-.14.17-.3.37-.42.49s-.29.3-.13.58a8.66 8.66 0 0 0 1.58 1.94 7.87 7.87 0 0 0 2.27 1.39c.28.14.45.12.61-.07s.71-.82.9-1.1.37-.23.63-.14 1.65.77 1.94.91.47.21.54.33a2.33 2.33 0 0 1-.14 1.34z"/></svg><svg viewBox="0 0 32.07 32.07" id="ic_zoom" xmlns="http://www.w3.org/2000/svg"><path fill="none" stroke="currentColor" stroke-linecap="round" stroke-miterlimit="10" stroke-width="1.5" d="M18.86 7.04v12.33M25.03 13.2H12.7"/><circle cx="18.86" cy="13.2" r="12.45" fill="none" stroke="currentColor" stroke-miterlimit="10" stroke-width="1.5"/><path fill="none" stroke="currentColor" stroke-linecap="round" stroke-miterlimit="10" stroke-width="1.5" d="M10.06 22.01L.75 31.32"/></svg></svg>